<mxfile host="app.diagrams.net" modified="2023-12-15T19:11:48.999Z" agent="Mozilla/5.0 (Windows NT 10.0; Win64; x64) AppleWebKit/537.36 (KHTML, like Gecko) Chrome/120.0.0.0 Safari/537.36" etag="SNHZZsDs2L_eXXw-LIrS" version="22.1.11" type="github">
  <diagram id="C5RBs43oDa-KdzZeNtuy" name="Page-1">
    <mxGraphModel dx="2269" dy="1406" grid="1" gridSize="10" guides="1" tooltips="1" connect="1" arrows="1" fold="1" page="1" pageScale="1" pageWidth="827" pageHeight="1169" math="0" shadow="0">
      <root>
        <mxCell id="WIyWlLk6GJQsqaUBKTNV-0" />
        <mxCell id="WIyWlLk6GJQsqaUBKTNV-1" parent="WIyWlLk6GJQsqaUBKTNV-0" />
        <mxCell id="w4VaS5Bk1cCcIL_fdZWZ-0" value="&lt;p style=&quot;line-height: 120%;&quot;&gt;&lt;/p&gt;&lt;h1 style=&quot;font-size: 29px;&quot;&gt;30000 Spotify Songs&lt;br&gt;(from &lt;a href=&quot;https://www.kaggle.com/datasets/joebeachcapital/30000-spotify-songs/&quot;&gt;Kaggle&lt;/a&gt;)&lt;/h1&gt;&lt;p&gt;&lt;/p&gt;" style="text;html=1;strokeColor=none;fillColor=none;spacing=5;spacingTop=-20;whiteSpace=wrap;overflow=hidden;rounded=0;fontFamily=EB Garamond;fontSource=https%3A%2F%2Ffonts.googleapis.com%2Fcss%3Ffamily%3DEB%2BGaramond;fontSize=29;align=center;fontStyle=0" parent="WIyWlLk6GJQsqaUBKTNV-1" vertex="1">
          <mxGeometry x="612" y="10" width="450" height="100" as="geometry" />
        </mxCell>
        <mxCell id="w4VaS5Bk1cCcIL_fdZWZ-25" value="" style="edgeStyle=orthogonalEdgeStyle;rounded=0;orthogonalLoop=1;jettySize=auto;html=1;fontFamily=EB Garamond;fontSource=https%3A%2F%2Ffonts.googleapis.com%2Fcss%3Ffamily%3DEB%2BGaramond;fontStyle=0;endArrow=none;endFill=0;" parent="WIyWlLk6GJQsqaUBKTNV-1" source="w4VaS5Bk1cCcIL_fdZWZ-2" target="w4VaS5Bk1cCcIL_fdZWZ-24" edge="1">
          <mxGeometry relative="1" as="geometry" />
        </mxCell>
        <mxCell id="w4VaS5Bk1cCcIL_fdZWZ-2" value="playlists" style="rounded=0;whiteSpace=wrap;html=1;fontFamily=EB Garamond;fontSource=https%3A%2F%2Ffonts.googleapis.com%2Fcss%3Ffamily%3DEB%2BGaramond;fontSize=15;fontStyle=0" parent="WIyWlLk6GJQsqaUBKTNV-1" vertex="1">
          <mxGeometry x="207" y="217" width="120" height="60" as="geometry" />
        </mxCell>
        <mxCell id="w4VaS5Bk1cCcIL_fdZWZ-10" value="playlist_subgenre" style="ellipse;whiteSpace=wrap;html=1;fontFamily=EB Garamond;rounded=0;fontSource=https%3A%2F%2Ffonts.googleapis.com%2Fcss%3Ffamily%3DEB%2BGaramond;fontSize=15;fontStyle=0" parent="WIyWlLk6GJQsqaUBKTNV-1" vertex="1">
          <mxGeometry x="408" y="297" width="130" height="70" as="geometry" />
        </mxCell>
        <mxCell id="w4VaS5Bk1cCcIL_fdZWZ-12" value="" style="endArrow=none;html=1;rounded=0;exitX=1;exitY=1;exitDx=0;exitDy=0;entryX=0;entryY=0;entryDx=0;entryDy=0;fontSize=15;fontFamily=EB Garamond;fontSource=https%3A%2F%2Ffonts.googleapis.com%2Fcss%3Ffamily%3DEB%2BGaramond;fontStyle=0;endFill=0;startArrow=none;startFill=0;" parent="WIyWlLk6GJQsqaUBKTNV-1" source="w4VaS5Bk1cCcIL_fdZWZ-2" target="w4VaS5Bk1cCcIL_fdZWZ-10" edge="1">
          <mxGeometry width="50" height="50" relative="1" as="geometry">
            <mxPoint x="437" y="257" as="sourcePoint" />
            <mxPoint x="487" y="207" as="targetPoint" />
          </mxGeometry>
        </mxCell>
        <mxCell id="w4VaS5Bk1cCcIL_fdZWZ-14" value="" style="endArrow=none;html=1;rounded=0;exitX=1;exitY=0;exitDx=0;exitDy=0;entryX=0;entryY=1;entryDx=0;entryDy=0;fontFamily=EB Garamond;fontSource=https%3A%2F%2Ffonts.googleapis.com%2Fcss%3Ffamily%3DEB%2BGaramond;fontStyle=0;endFill=0;startArrow=none;startFill=0;" parent="WIyWlLk6GJQsqaUBKTNV-1" source="w4VaS5Bk1cCcIL_fdZWZ-2" target="dfx5ZRGHvSyv2vt1D5LN-17" edge="1">
          <mxGeometry width="50" height="50" relative="1" as="geometry">
            <mxPoint x="437" y="257" as="sourcePoint" />
            <mxPoint x="426.5580785627087" y="184.48755857602623" as="targetPoint" />
          </mxGeometry>
        </mxCell>
        <mxCell id="w4VaS5Bk1cCcIL_fdZWZ-16" value="playlist_name" style="ellipse;whiteSpace=wrap;html=1;fontSize=15;fontFamily=EB Garamond;rounded=0;fontSource=https%3A%2F%2Ffonts.googleapis.com%2Fcss%3Ffamily%3DEB%2BGaramond;fontStyle=0;" parent="WIyWlLk6GJQsqaUBKTNV-1" vertex="1">
          <mxGeometry x="3" y="297" width="130" height="70" as="geometry" />
        </mxCell>
        <mxCell id="w4VaS5Bk1cCcIL_fdZWZ-20" value="" style="endArrow=none;html=1;rounded=0;exitX=0;exitY=1;exitDx=0;exitDy=0;entryX=1;entryY=0;entryDx=0;entryDy=0;fontFamily=EB Garamond;fontSource=https%3A%2F%2Ffonts.googleapis.com%2Fcss%3Ffamily%3DEB%2BGaramond;fontStyle=0;endFill=0;" parent="WIyWlLk6GJQsqaUBKTNV-1" source="w4VaS5Bk1cCcIL_fdZWZ-2" target="w4VaS5Bk1cCcIL_fdZWZ-16" edge="1">
          <mxGeometry width="50" height="50" relative="1" as="geometry">
            <mxPoint x="177" y="272" as="sourcePoint" />
            <mxPoint x="227" y="222" as="targetPoint" />
          </mxGeometry>
        </mxCell>
        <mxCell id="w4VaS5Bk1cCcIL_fdZWZ-21" value="" style="endArrow=none;html=1;rounded=0;exitX=0;exitY=1;exitDx=0;exitDy=0;entryX=1;entryY=1;entryDx=0;entryDy=0;fontFamily=EB Garamond;fontSource=https%3A%2F%2Ffonts.googleapis.com%2Fcss%3Ffamily%3DEB%2BGaramond;fontStyle=0;endFill=0;" parent="WIyWlLk6GJQsqaUBKTNV-1" edge="1">
          <mxGeometry width="50" height="50" relative="1" as="geometry">
            <mxPoint x="207" y="217" as="sourcePoint" />
            <mxPoint x="113.87329697237635" y="184.79637674182504" as="targetPoint" />
          </mxGeometry>
        </mxCell>
        <mxCell id="w4VaS5Bk1cCcIL_fdZWZ-27" value="" style="edgeStyle=orthogonalEdgeStyle;rounded=0;orthogonalLoop=1;jettySize=auto;html=1;fontFamily=EB Garamond;fontSource=https%3A%2F%2Ffonts.googleapis.com%2Fcss%3Ffamily%3DEB%2BGaramond;fontStyle=0;endArrow=none;endFill=0;" parent="WIyWlLk6GJQsqaUBKTNV-1" source="w4VaS5Bk1cCcIL_fdZWZ-24" target="w4VaS5Bk1cCcIL_fdZWZ-26" edge="1">
          <mxGeometry relative="1" as="geometry" />
        </mxCell>
        <mxCell id="w4VaS5Bk1cCcIL_fdZWZ-24" value="track_to_playlist" style="rhombus;whiteSpace=wrap;html=1;fontSize=15;fontFamily=EB Garamond;rounded=0;fontSource=https%3A%2F%2Ffonts.googleapis.com%2Fcss%3Ffamily%3DEB%2BGaramond;fontStyle=0;" parent="WIyWlLk6GJQsqaUBKTNV-1" vertex="1">
          <mxGeometry x="202" y="382" width="130" height="80" as="geometry" />
        </mxCell>
        <mxCell id="w4VaS5Bk1cCcIL_fdZWZ-29" value="" style="edgeStyle=orthogonalEdgeStyle;rounded=0;orthogonalLoop=1;jettySize=auto;html=1;fontFamily=EB Garamond;fontSource=https%3A%2F%2Ffonts.googleapis.com%2Fcss%3Ffamily%3DEB%2BGaramond;fontStyle=0;endArrow=none;endFill=0;entryX=0.5;entryY=0;entryDx=0;entryDy=0;" parent="WIyWlLk6GJQsqaUBKTNV-1" source="w4VaS5Bk1cCcIL_fdZWZ-26" target="d_IvAm214ZQegVvniSVo-48" edge="1">
          <mxGeometry relative="1" as="geometry">
            <mxPoint x="267" y="847.0000000000002" as="targetPoint" />
          </mxGeometry>
        </mxCell>
        <mxCell id="w4VaS5Bk1cCcIL_fdZWZ-44" value="" style="edgeStyle=orthogonalEdgeStyle;rounded=0;orthogonalLoop=1;jettySize=auto;html=1;fontFamily=EB Garamond;fontSource=https%3A%2F%2Ffonts.googleapis.com%2Fcss%3Ffamily%3DEB%2BGaramond;fontStyle=0;endArrow=none;endFill=0;" parent="WIyWlLk6GJQsqaUBKTNV-1" source="w4VaS5Bk1cCcIL_fdZWZ-26" target="w4VaS5Bk1cCcIL_fdZWZ-43" edge="1">
          <mxGeometry relative="1" as="geometry" />
        </mxCell>
        <mxCell id="w4VaS5Bk1cCcIL_fdZWZ-46" value="" style="edgeStyle=orthogonalEdgeStyle;rounded=0;orthogonalLoop=1;jettySize=auto;html=1;fontFamily=EB Garamond;fontSource=https%3A%2F%2Ffonts.googleapis.com%2Fcss%3Ffamily%3DEB%2BGaramond;fontStyle=0;endArrow=none;endFill=0;" parent="WIyWlLk6GJQsqaUBKTNV-1" source="w4VaS5Bk1cCcIL_fdZWZ-26" target="w4VaS5Bk1cCcIL_fdZWZ-45" edge="1">
          <mxGeometry relative="1" as="geometry" />
        </mxCell>
        <mxCell id="w4VaS5Bk1cCcIL_fdZWZ-26" value="tracks" style="whiteSpace=wrap;html=1;fontSize=15;fontFamily=EB Garamond;rounded=0;fontSource=https%3A%2F%2Ffonts.googleapis.com%2Fcss%3Ffamily%3DEB%2BGaramond;fontStyle=0;" parent="WIyWlLk6GJQsqaUBKTNV-1" vertex="1">
          <mxGeometry x="202" y="552" width="130" height="60" as="geometry" />
        </mxCell>
        <mxCell id="w4VaS5Bk1cCcIL_fdZWZ-104" value="" style="edgeStyle=orthogonalEdgeStyle;rounded=0;orthogonalLoop=1;jettySize=auto;html=1;endArrow=none;endFill=0;exitX=0;exitY=0.5;exitDx=0;exitDy=0;" parent="WIyWlLk6GJQsqaUBKTNV-1" source="d_IvAm214ZQegVvniSVo-48" target="w4VaS5Bk1cCcIL_fdZWZ-103" edge="1">
          <mxGeometry relative="1" as="geometry">
            <mxPoint x="201.99999999999795" y="882.0000000000002" as="sourcePoint" />
          </mxGeometry>
        </mxCell>
        <mxCell id="w4VaS5Bk1cCcIL_fdZWZ-34" value="track_name" style="ellipse;whiteSpace=wrap;html=1;fontSize=15;fontFamily=EB Garamond;rounded=0;fontSource=https%3A%2F%2Ffonts.googleapis.com%2Fcss%3Ffamily%3DEB%2BGaramond;fontStyle=0;" parent="WIyWlLk6GJQsqaUBKTNV-1" vertex="1">
          <mxGeometry x="3" y="455" width="130" height="70" as="geometry" />
        </mxCell>
        <mxCell id="w4VaS5Bk1cCcIL_fdZWZ-36" value="" style="endArrow=none;html=1;rounded=0;exitX=0;exitY=0;exitDx=0;exitDy=0;entryX=1;entryY=1;entryDx=0;entryDy=0;fontFamily=EB Garamond;fontSource=https%3A%2F%2Ffonts.googleapis.com%2Fcss%3Ffamily%3DEB%2BGaramond;fontStyle=0;endFill=0;startArrow=none;startFill=0;" parent="WIyWlLk6GJQsqaUBKTNV-1" source="w4VaS5Bk1cCcIL_fdZWZ-26" target="w4VaS5Bk1cCcIL_fdZWZ-34" edge="1">
          <mxGeometry width="50" height="50" relative="1" as="geometry">
            <mxPoint x="313" y="515" as="sourcePoint" />
            <mxPoint x="363" y="465" as="targetPoint" />
          </mxGeometry>
        </mxCell>
        <mxCell id="w4VaS5Bk1cCcIL_fdZWZ-37" value="track_popularity" style="ellipse;whiteSpace=wrap;html=1;fontSize=15;fontFamily=EB Garamond;rounded=0;fontSource=https%3A%2F%2Ffonts.googleapis.com%2Fcss%3Ffamily%3DEB%2BGaramond;fontStyle=0;" parent="WIyWlLk6GJQsqaUBKTNV-1" vertex="1">
          <mxGeometry x="3" y="636" width="130" height="70" as="geometry" />
        </mxCell>
        <mxCell id="w4VaS5Bk1cCcIL_fdZWZ-38" value="" style="endArrow=none;html=1;rounded=0;exitX=0;exitY=1;exitDx=0;exitDy=0;entryX=1;entryY=0;entryDx=0;entryDy=0;fontFamily=EB Garamond;fontSource=https%3A%2F%2Ffonts.googleapis.com%2Fcss%3Ffamily%3DEB%2BGaramond;fontStyle=0;endFill=0;" parent="WIyWlLk6GJQsqaUBKTNV-1" source="w4VaS5Bk1cCcIL_fdZWZ-26" target="w4VaS5Bk1cCcIL_fdZWZ-37" edge="1">
          <mxGeometry width="50" height="50" relative="1" as="geometry">
            <mxPoint x="202" y="732" as="sourcePoint" />
            <mxPoint x="363" y="645" as="targetPoint" />
          </mxGeometry>
        </mxCell>
        <mxCell id="w4VaS5Bk1cCcIL_fdZWZ-39" value="valence" style="ellipse;whiteSpace=wrap;html=1;rounded=0;fontSize=15;fontFamily=EB Garamond;fontSource=https%3A%2F%2Ffonts.googleapis.com%2Fcss%3Ffamily%3DEB%2BGaramond;" parent="WIyWlLk6GJQsqaUBKTNV-1" vertex="1">
          <mxGeometry x="10" y="757" width="130" height="70" as="geometry" />
        </mxCell>
        <mxCell id="w4VaS5Bk1cCcIL_fdZWZ-40" value="" style="endArrow=none;html=1;rounded=0;exitX=0;exitY=0;exitDx=0;exitDy=0;entryX=1;entryY=1;entryDx=0;entryDy=0;fontFamily=EB Garamond;fontSource=https%3A%2F%2Ffonts.googleapis.com%2Fcss%3Ffamily%3DEB%2BGaramond;fontStyle=0;endFill=0;" parent="WIyWlLk6GJQsqaUBKTNV-1" source="d_IvAm214ZQegVvniSVo-48" target="w4VaS5Bk1cCcIL_fdZWZ-39" edge="1">
          <mxGeometry width="50" height="50" relative="1" as="geometry">
            <mxPoint x="220.40853321462964" y="857.5949459695682" as="sourcePoint" />
            <mxPoint x="368" y="762" as="targetPoint" />
          </mxGeometry>
        </mxCell>
        <mxCell id="w4VaS5Bk1cCcIL_fdZWZ-41" value="instrumentalness" style="ellipse;whiteSpace=wrap;html=1;fontSize=15;fontFamily=EB Garamond;rounded=0;fontSource=https%3A%2F%2Ffonts.googleapis.com%2Fcss%3Ffamily%3DEB%2BGaramond;fontStyle=0;" parent="WIyWlLk6GJQsqaUBKTNV-1" vertex="1">
          <mxGeometry x="10" y="932" width="130" height="70" as="geometry" />
        </mxCell>
        <mxCell id="w4VaS5Bk1cCcIL_fdZWZ-42" value="" style="endArrow=none;html=1;rounded=0;exitX=0;exitY=0.75;exitDx=0;exitDy=0;entryX=1;entryY=0;entryDx=0;entryDy=0;fontFamily=EB Garamond;fontSource=https%3A%2F%2Ffonts.googleapis.com%2Fcss%3Ffamily%3DEB%2BGaramond;fontStyle=0;endFill=0;" parent="WIyWlLk6GJQsqaUBKTNV-1" source="d_IvAm214ZQegVvniSVo-48" target="w4VaS5Bk1cCcIL_fdZWZ-41" edge="1">
          <mxGeometry width="50" height="50" relative="1" as="geometry">
            <mxPoint x="220.40853321462964" y="906.4050540304322" as="sourcePoint" />
            <mxPoint x="368" y="942" as="targetPoint" />
          </mxGeometry>
        </mxCell>
        <mxCell id="w4VaS5Bk1cCcIL_fdZWZ-43" value="track_artist" style="ellipse;whiteSpace=wrap;html=1;fontSize=15;fontFamily=EB Garamond;rounded=0;fontSource=https%3A%2F%2Ffonts.googleapis.com%2Fcss%3Ffamily%3DEB%2BGaramond;fontStyle=0;" parent="WIyWlLk6GJQsqaUBKTNV-1" vertex="1">
          <mxGeometry x="3" y="547" width="130" height="70" as="geometry" />
        </mxCell>
        <mxCell id="w4VaS5Bk1cCcIL_fdZWZ-48" value="" style="edgeStyle=orthogonalEdgeStyle;rounded=0;orthogonalLoop=1;jettySize=auto;html=1;fontFamily=EB Garamond;fontSource=https%3A%2F%2Ffonts.googleapis.com%2Fcss%3Ffamily%3DEB%2BGaramond;endArrow=none;endFill=0;fontStyle=0;" parent="WIyWlLk6GJQsqaUBKTNV-1" source="w4VaS5Bk1cCcIL_fdZWZ-45" edge="1">
          <mxGeometry relative="1" as="geometry">
            <mxPoint x="699.9999999999998" y="582" as="targetPoint" />
          </mxGeometry>
        </mxCell>
        <mxCell id="w4VaS5Bk1cCcIL_fdZWZ-45" value="track_to_album" style="rhombus;whiteSpace=wrap;html=1;fontSize=15;fontFamily=EB Garamond;rounded=0;fontSource=https%3A%2F%2Ffonts.googleapis.com%2Fcss%3Ffamily%3DEB%2BGaramond;fontStyle=0;" parent="WIyWlLk6GJQsqaUBKTNV-1" vertex="1">
          <mxGeometry x="445" y="542" width="130" height="80" as="geometry" />
        </mxCell>
        <mxCell id="w4VaS5Bk1cCcIL_fdZWZ-82" value="" style="edgeStyle=orthogonalEdgeStyle;rounded=0;orthogonalLoop=1;jettySize=auto;html=1;fontFamily=EB Garamond;fontSource=https%3A%2F%2Ffonts.googleapis.com%2Fcss%3Ffamily%3DEB%2BGaramond;endArrow=none;endFill=0;fontStyle=0" parent="WIyWlLk6GJQsqaUBKTNV-1" target="w4VaS5Bk1cCcIL_fdZWZ-81" edge="1">
          <mxGeometry relative="1" as="geometry">
            <mxPoint x="759.9999999999998" y="552" as="sourcePoint" />
          </mxGeometry>
        </mxCell>
        <mxCell id="w4VaS5Bk1cCcIL_fdZWZ-78" value="" style="rounded=0;orthogonalLoop=1;jettySize=auto;html=1;fontFamily=EB Garamond;fontSource=https%3A%2F%2Ffonts.googleapis.com%2Fcss%3Ffamily%3DEB%2BGaramond;endArrow=none;endFill=0;fontStyle=0;exitX=1;exitY=0.75;exitDx=0;exitDy=0;entryX=0;entryY=0;entryDx=0;entryDy=0;" parent="WIyWlLk6GJQsqaUBKTNV-1" source="d_IvAm214ZQegVvniSVo-48" target="w4VaS5Bk1cCcIL_fdZWZ-77" edge="1">
          <mxGeometry relative="1" as="geometry">
            <mxPoint x="313.59146678537036" y="906.4050540304324" as="sourcePoint" />
          </mxGeometry>
        </mxCell>
        <mxCell id="w4VaS5Bk1cCcIL_fdZWZ-80" value="" style="rounded=0;orthogonalLoop=1;jettySize=auto;html=1;fontFamily=EB Garamond;fontSource=https%3A%2F%2Ffonts.googleapis.com%2Fcss%3Ffamily%3DEB%2BGaramond;endArrow=none;endFill=0;fontStyle=0;exitX=1;exitY=1;exitDx=0;exitDy=0;entryX=0;entryY=0;entryDx=0;entryDy=0;" parent="WIyWlLk6GJQsqaUBKTNV-1" source="d_IvAm214ZQegVvniSVo-48" target="w4VaS5Bk1cCcIL_fdZWZ-79" edge="1">
          <mxGeometry relative="1" as="geometry">
            <mxPoint x="313.59146678537036" y="906.4050540304324" as="sourcePoint" />
          </mxGeometry>
        </mxCell>
        <mxCell id="w4VaS5Bk1cCcIL_fdZWZ-61" value="danceability" style="ellipse;whiteSpace=wrap;html=1;fontSize=15;fontFamily=EB Garamond;rounded=0;fontSource=https%3A%2F%2Ffonts.googleapis.com%2Fcss%3Ffamily%3DEB%2BGaramond;fontStyle=0;" parent="WIyWlLk6GJQsqaUBKTNV-1" vertex="1">
          <mxGeometry x="390" y="757" width="130" height="70" as="geometry" />
        </mxCell>
        <mxCell id="d_IvAm214ZQegVvniSVo-42" style="rounded=0;orthogonalLoop=1;jettySize=auto;html=1;exitX=1;exitY=0;exitDx=0;exitDy=0;entryX=0;entryY=1;entryDx=0;entryDy=0;endArrow=none;endFill=0;" parent="WIyWlLk6GJQsqaUBKTNV-1" source="d_IvAm214ZQegVvniSVo-48" target="w4VaS5Bk1cCcIL_fdZWZ-61" edge="1">
          <mxGeometry relative="1" as="geometry">
            <mxPoint x="313.59146678537036" y="857.5949459695678" as="sourcePoint" />
          </mxGeometry>
        </mxCell>
        <mxCell id="w4VaS5Bk1cCcIL_fdZWZ-66" value="duration_ms" style="ellipse;whiteSpace=wrap;html=1;fontSize=15;fontFamily=EB Garamond;rounded=0;fontSource=https%3A%2F%2Ffonts.googleapis.com%2Fcss%3Ffamily%3DEB%2BGaramond;fontStyle=0;" parent="WIyWlLk6GJQsqaUBKTNV-1" vertex="1">
          <mxGeometry x="362" y="636" width="130" height="70" as="geometry" />
        </mxCell>
        <mxCell id="w4VaS5Bk1cCcIL_fdZWZ-67" value="" style="endArrow=none;html=1;rounded=0;entryX=0;entryY=0;entryDx=0;entryDy=0;exitX=1;exitY=1;exitDx=0;exitDy=0;fontFamily=EB Garamond;fontSource=https%3A%2F%2Ffonts.googleapis.com%2Fcss%3Ffamily%3DEB%2BGaramond;endFill=0;fontStyle=0" parent="WIyWlLk6GJQsqaUBKTNV-1" source="w4VaS5Bk1cCcIL_fdZWZ-26" target="w4VaS5Bk1cCcIL_fdZWZ-66" edge="1">
          <mxGeometry width="50" height="50" relative="1" as="geometry">
            <mxPoint x="558" y="634" as="sourcePoint" />
            <mxPoint x="578" y="621" as="targetPoint" />
          </mxGeometry>
        </mxCell>
        <mxCell id="w4VaS5Bk1cCcIL_fdZWZ-70" value="energy" style="ellipse;whiteSpace=wrap;html=1;fontSize=15;fontFamily=EB Garamond;rounded=0;fontSource=https%3A%2F%2Ffonts.googleapis.com%2Fcss%3Ffamily%3DEB%2BGaramond;fontStyle=0;" parent="WIyWlLk6GJQsqaUBKTNV-1" vertex="1">
          <mxGeometry x="390" y="847" width="130" height="70" as="geometry" />
        </mxCell>
        <mxCell id="w4VaS5Bk1cCcIL_fdZWZ-72" style="edgeStyle=orthogonalEdgeStyle;rounded=0;orthogonalLoop=1;jettySize=auto;html=1;exitX=0.5;exitY=1;exitDx=0;exitDy=0;fontFamily=EB Garamond;fontSource=https%3A%2F%2Ffonts.googleapis.com%2Fcss%3Ffamily%3DEB%2BGaramond;fontStyle=0" parent="WIyWlLk6GJQsqaUBKTNV-1" source="w4VaS5Bk1cCcIL_fdZWZ-66" target="w4VaS5Bk1cCcIL_fdZWZ-66" edge="1">
          <mxGeometry relative="1" as="geometry" />
        </mxCell>
        <mxCell id="w4VaS5Bk1cCcIL_fdZWZ-73" value="acousticness" style="ellipse;whiteSpace=wrap;html=1;fontSize=15;fontFamily=EB Garamond;rounded=0;fontSource=https%3A%2F%2Ffonts.googleapis.com%2Fcss%3Ffamily%3DEB%2BGaramond;fontStyle=0;" parent="WIyWlLk6GJQsqaUBKTNV-1" vertex="1">
          <mxGeometry x="33" y="1010" width="130" height="70" as="geometry" />
        </mxCell>
        <mxCell id="w4VaS5Bk1cCcIL_fdZWZ-74" value="" style="endArrow=none;html=1;rounded=0;exitX=1;exitY=0.5;exitDx=0;exitDy=0;entryX=0;entryY=0.5;entryDx=0;entryDy=0;fontFamily=EB Garamond;fontSource=https%3A%2F%2Ffonts.googleapis.com%2Fcss%3Ffamily%3DEB%2BGaramond;endFill=0;fontStyle=0" parent="WIyWlLk6GJQsqaUBKTNV-1" source="d_IvAm214ZQegVvniSVo-48" target="w4VaS5Bk1cCcIL_fdZWZ-70" edge="1">
          <mxGeometry width="50" height="50" relative="1" as="geometry">
            <mxPoint x="332.00000000000205" y="882.0000000000002" as="sourcePoint" />
            <mxPoint x="653" y="816" as="targetPoint" />
          </mxGeometry>
        </mxCell>
        <mxCell id="w4VaS5Bk1cCcIL_fdZWZ-75" value="" style="endArrow=none;html=1;rounded=0;entryX=1;entryY=0;entryDx=0;entryDy=0;fontFamily=EB Garamond;fontSource=https%3A%2F%2Ffonts.googleapis.com%2Fcss%3Ffamily%3DEB%2BGaramond;endFill=0;fontStyle=0;exitX=0;exitY=1;exitDx=0;exitDy=0;" parent="WIyWlLk6GJQsqaUBKTNV-1" source="d_IvAm214ZQegVvniSVo-48" target="w4VaS5Bk1cCcIL_fdZWZ-73" edge="1">
          <mxGeometry width="50" height="50" relative="1" as="geometry">
            <mxPoint x="220.40853321462964" y="906.4050540304322" as="sourcePoint" />
            <mxPoint x="558" y="891" as="targetPoint" />
          </mxGeometry>
        </mxCell>
        <mxCell id="w4VaS5Bk1cCcIL_fdZWZ-77" value="key_" style="ellipse;whiteSpace=wrap;html=1;fontSize=15;fontFamily=EB Garamond;rounded=0;fontSource=https%3A%2F%2Ffonts.googleapis.com%2Fcss%3Ffamily%3DEB%2BGaramond;fontStyle=0;" parent="WIyWlLk6GJQsqaUBKTNV-1" vertex="1">
          <mxGeometry x="390" y="932" width="130" height="70" as="geometry" />
        </mxCell>
        <mxCell id="w4VaS5Bk1cCcIL_fdZWZ-79" value="loudness" style="ellipse;whiteSpace=wrap;html=1;fontSize=15;fontFamily=EB Garamond;rounded=0;fontSource=https%3A%2F%2Ffonts.googleapis.com%2Fcss%3Ffamily%3DEB%2BGaramond;fontStyle=0;" parent="WIyWlLk6GJQsqaUBKTNV-1" vertex="1">
          <mxGeometry x="380" y="1010" width="130" height="70" as="geometry" />
        </mxCell>
        <mxCell id="w4VaS5Bk1cCcIL_fdZWZ-81" value="track_album_name" style="ellipse;whiteSpace=wrap;html=1;fontSize=15;fontFamily=EB Garamond;rounded=0;fontSource=https%3A%2F%2Ffonts.googleapis.com%2Fcss%3Ffamily%3DEB%2BGaramond;fontStyle=0;" parent="WIyWlLk6GJQsqaUBKTNV-1" vertex="1">
          <mxGeometry x="695" y="340" width="130" height="70" as="geometry" />
        </mxCell>
        <mxCell id="w4VaS5Bk1cCcIL_fdZWZ-85" value="" style="endArrow=none;html=1;rounded=0;fontFamily=EB Garamond;fontSource=https%3A%2F%2Ffonts.googleapis.com%2Fcss%3Ffamily%3DEB%2BGaramond;endFill=0;fontStyle=0;exitX=0.5;exitY=1;exitDx=0;exitDy=0;" parent="WIyWlLk6GJQsqaUBKTNV-1" source="d_IvAm214ZQegVvniSVo-50" target="w4VaS5Bk1cCcIL_fdZWZ-86" edge="1">
          <mxGeometry width="50" height="50" relative="1" as="geometry">
            <mxPoint x="700" y="552" as="sourcePoint" />
            <mxPoint x="653" y="497" as="targetPoint" />
          </mxGeometry>
        </mxCell>
        <mxCell id="w4VaS5Bk1cCcIL_fdZWZ-86" value="track_album_&lt;br&gt;release_date" style="ellipse;whiteSpace=wrap;html=1;fontFamily=EB Garamond;fontSource=https%3A%2F%2Ffonts.googleapis.com%2Fcss%3Ffamily%3DEB%2BGaramond;fontSize=15;fontStyle=0" parent="WIyWlLk6GJQsqaUBKTNV-1" vertex="1">
          <mxGeometry x="694.9999999999998" y="726" width="130" height="70" as="geometry" />
        </mxCell>
        <mxCell id="w4VaS5Bk1cCcIL_fdZWZ-95" value="Екатерина Козлова, БКЛ202" style="text;html=1;strokeColor=none;fillColor=none;align=center;verticalAlign=middle;whiteSpace=wrap;rounded=0;fontFamily=EB Garamond;fontSource=https%3A%2F%2Ffonts.googleapis.com%2Fcss%3Ffamily%3DEB%2BGaramond;fontSize=15;fontStyle=2" parent="WIyWlLk6GJQsqaUBKTNV-1" vertex="1">
          <mxGeometry x="3" y="1130" width="190" height="30" as="geometry" />
        </mxCell>
        <mxCell id="w4VaS5Bk1cCcIL_fdZWZ-99" value="&lt;u&gt;track_id&lt;/u&gt;" style="ellipse;whiteSpace=wrap;html=1;fontSize=15;fontFamily=EB Garamond;fontSource=https%3A%2F%2Ffonts.googleapis.com%2Fcss%3Ffamily%3DEB%2BGaramond;" parent="WIyWlLk6GJQsqaUBKTNV-1" vertex="1">
          <mxGeometry x="353" y="444" width="130" height="70" as="geometry" />
        </mxCell>
        <mxCell id="w4VaS5Bk1cCcIL_fdZWZ-100" value="" style="endArrow=none;html=1;rounded=0;entryX=0;entryY=1;entryDx=0;entryDy=0;exitX=1;exitY=0;exitDx=0;exitDy=0;" parent="WIyWlLk6GJQsqaUBKTNV-1" source="w4VaS5Bk1cCcIL_fdZWZ-26" target="w4VaS5Bk1cCcIL_fdZWZ-99" edge="1">
          <mxGeometry width="50" height="50" relative="1" as="geometry">
            <mxPoint x="250" y="620" as="sourcePoint" />
            <mxPoint x="300" y="570" as="targetPoint" />
          </mxGeometry>
        </mxCell>
        <mxCell id="w4VaS5Bk1cCcIL_fdZWZ-103" value="liveness" style="ellipse;whiteSpace=wrap;html=1;fontSize=15;fontFamily=EB Garamond;rounded=0;fontSource=https%3A%2F%2Ffonts.googleapis.com%2Fcss%3Ffamily%3DEB%2BGaramond;fontStyle=0;" parent="WIyWlLk6GJQsqaUBKTNV-1" vertex="1">
          <mxGeometry x="10" y="847" width="130" height="70" as="geometry" />
        </mxCell>
        <mxCell id="dfx5ZRGHvSyv2vt1D5LN-3" value="M" style="text;html=1;strokeColor=none;fillColor=none;align=center;verticalAlign=middle;whiteSpace=wrap;rounded=0;fontSize=15;fontFamily=EB Garamond;fontSource=https%3A%2F%2Ffonts.googleapis.com%2Fcss%3Ffamily%3DEB%2BGaramond;" parent="WIyWlLk6GJQsqaUBKTNV-1" vertex="1">
          <mxGeometry x="237" y="522" width="30" height="30" as="geometry" />
        </mxCell>
        <mxCell id="dfx5ZRGHvSyv2vt1D5LN-4" value="N" style="text;html=1;strokeColor=none;fillColor=none;align=center;verticalAlign=middle;whiteSpace=wrap;rounded=0;fontSize=15;fontFamily=EB Garamond;fontSource=https%3A%2F%2Ffonts.googleapis.com%2Fcss%3Ffamily%3DEB%2BGaramond;" parent="WIyWlLk6GJQsqaUBKTNV-1" vertex="1">
          <mxGeometry x="237" y="277" width="30" height="30" as="geometry" />
        </mxCell>
        <mxCell id="dfx5ZRGHvSyv2vt1D5LN-5" value="1" style="text;html=1;strokeColor=none;fillColor=none;align=center;verticalAlign=middle;whiteSpace=wrap;rounded=0;fontSize=15;fontFamily=EB Garamond;fontSource=https%3A%2F%2Ffonts.googleapis.com%2Fcss%3Ffamily%3DEB%2BGaramond;" parent="WIyWlLk6GJQsqaUBKTNV-1" vertex="1">
          <mxGeometry x="237" y="822" width="30" height="30" as="geometry" />
        </mxCell>
        <mxCell id="dfx5ZRGHvSyv2vt1D5LN-6" value="1" style="text;html=1;strokeColor=none;fillColor=none;align=center;verticalAlign=middle;whiteSpace=wrap;rounded=0;fontSize=15;fontFamily=EB Garamond;fontSource=https%3A%2F%2Ffonts.googleapis.com%2Fcss%3Ffamily%3DEB%2BGaramond;" parent="WIyWlLk6GJQsqaUBKTNV-1" vertex="1">
          <mxGeometry x="237" y="612" width="30" height="30" as="geometry" />
        </mxCell>
        <mxCell id="dfx5ZRGHvSyv2vt1D5LN-8" value="N" style="text;html=1;strokeColor=none;fillColor=none;align=center;verticalAlign=middle;whiteSpace=wrap;rounded=0;fontSize=15;fontFamily=EB Garamond;fontSource=https%3A%2F%2Ffonts.googleapis.com%2Fcss%3Ffamily%3DEB%2BGaramond;" parent="WIyWlLk6GJQsqaUBKTNV-1" vertex="1">
          <mxGeometry x="332" y="552" width="30" height="30" as="geometry" />
        </mxCell>
        <mxCell id="dfx5ZRGHvSyv2vt1D5LN-9" value="1" style="text;html=1;strokeColor=none;fillColor=none;align=center;verticalAlign=middle;whiteSpace=wrap;rounded=0;fontSize=15;fontFamily=EB Garamond;fontSource=https%3A%2F%2Ffonts.googleapis.com%2Fcss%3Ffamily%3DEB%2BGaramond;" parent="WIyWlLk6GJQsqaUBKTNV-1" vertex="1">
          <mxGeometry x="670" y="552" width="30" height="30" as="geometry" />
        </mxCell>
        <mxCell id="dfx5ZRGHvSyv2vt1D5LN-13" value="" style="endArrow=none;html=1;rounded=0;fontFamily=EB Garamond;fontSource=https%3A%2F%2Ffonts.googleapis.com%2Fcss%3Ffamily%3DEB%2BGaramond;endFill=0;fontStyle=0;exitX=0.25;exitY=0;exitDx=0;exitDy=0;" parent="WIyWlLk6GJQsqaUBKTNV-1" target="dfx5ZRGHvSyv2vt1D5LN-14" edge="1">
          <mxGeometry width="50" height="50" relative="1" as="geometry">
            <mxPoint x="729.9999999999998" y="552" as="sourcePoint" />
            <mxPoint x="661" y="417" as="targetPoint" />
          </mxGeometry>
        </mxCell>
        <mxCell id="dfx5ZRGHvSyv2vt1D5LN-14" value="&lt;u&gt;track_album_id&lt;/u&gt;" style="ellipse;whiteSpace=wrap;html=1;fontFamily=EB Garamond;fontSource=https%3A%2F%2Ffonts.googleapis.com%2Fcss%3Ffamily%3DEB%2BGaramond;fontSize=15;fontStyle=0" parent="WIyWlLk6GJQsqaUBKTNV-1" vertex="1">
          <mxGeometry x="574.9999999999998" y="444" width="130" height="70" as="geometry" />
        </mxCell>
        <mxCell id="dfx5ZRGHvSyv2vt1D5LN-17" value="&lt;font style=&quot;font-size: 15px;&quot;&gt;playlist_genre&lt;/font&gt;" style="ellipse;shape=doubleEllipse;whiteSpace=wrap;html=1;fontFamily=EB Garamond;fontSource=https%3A%2F%2Ffonts.googleapis.com%2Fcss%3Ffamily%3DEB%2BGaramond;strokeColor=default;margin=100;" parent="WIyWlLk6GJQsqaUBKTNV-1" vertex="1">
          <mxGeometry x="408" y="130" width="130" height="70" as="geometry" />
        </mxCell>
        <mxCell id="dfx5ZRGHvSyv2vt1D5LN-112" value="&lt;u&gt;playlist_id&lt;/u&gt;" style="ellipse;shape=doubleEllipse;whiteSpace=wrap;html=1;fontFamily=EB Garamond;fontSource=https%3A%2F%2Ffonts.googleapis.com%2Fcss%3Ffamily%3DEB%2BGaramond;fontSize=15;margin=100;" parent="WIyWlLk6GJQsqaUBKTNV-1" vertex="1">
          <mxGeometry x="3" y="125" width="130" height="70" as="geometry" />
        </mxCell>
        <mxCell id="dfx5ZRGHvSyv2vt1D5LN-114" value="playlists" style="shape=table;startSize=30;container=1;collapsible=0;childLayout=tableLayout;fixedRows=1;rowLines=0;fontStyle=1;strokeColor=default;fontSize=15;fontFamily=EB Garamond;fontSource=https%3A%2F%2Ffonts.googleapis.com%2Fcss%3Ffamily%3DEB%2BGaramond;" parent="WIyWlLk6GJQsqaUBKTNV-1" vertex="1">
          <mxGeometry x="842" y="648" width="220" height="150" as="geometry" />
        </mxCell>
        <mxCell id="dfx5ZRGHvSyv2vt1D5LN-115" value="" style="shape=tableRow;horizontal=0;startSize=0;swimlaneHead=0;swimlaneBody=0;top=0;left=0;bottom=0;right=0;collapsible=0;dropTarget=0;fillColor=none;points=[[0,0.5],[1,0.5]];portConstraint=eastwest;strokeColor=inherit;fontSize=16;" parent="dfx5ZRGHvSyv2vt1D5LN-114" vertex="1">
          <mxGeometry y="30" width="220" height="30" as="geometry" />
        </mxCell>
        <mxCell id="dfx5ZRGHvSyv2vt1D5LN-116" value="PK" style="shape=partialRectangle;html=1;whiteSpace=wrap;connectable=0;fillColor=none;top=0;left=0;bottom=0;right=0;overflow=hidden;pointerEvents=1;strokeColor=inherit;fontSize=15;fontFamily=EB Garamond;fontSource=https%3A%2F%2Ffonts.googleapis.com%2Fcss%3Ffamily%3DEB%2BGaramond;" parent="dfx5ZRGHvSyv2vt1D5LN-115" vertex="1">
          <mxGeometry width="49" height="30" as="geometry">
            <mxRectangle width="49" height="30" as="alternateBounds" />
          </mxGeometry>
        </mxCell>
        <mxCell id="dfx5ZRGHvSyv2vt1D5LN-117" value="&lt;span style=&quot;border-color: var(--border-color); font-size: 15px; text-align: center;&quot;&gt;playlist_id&lt;/span&gt;" style="shape=partialRectangle;html=1;whiteSpace=wrap;connectable=0;fillColor=none;top=0;left=0;bottom=0;right=0;align=left;spacingLeft=6;overflow=hidden;strokeColor=inherit;fontSize=15;fontFamily=EB Garamond;fontSource=https%3A%2F%2Ffonts.googleapis.com%2Fcss%3Ffamily%3DEB%2BGaramond;" parent="dfx5ZRGHvSyv2vt1D5LN-115" vertex="1">
          <mxGeometry x="49" width="171" height="30" as="geometry">
            <mxRectangle width="171" height="30" as="alternateBounds" />
          </mxGeometry>
        </mxCell>
        <mxCell id="dfx5ZRGHvSyv2vt1D5LN-118" value="" style="shape=tableRow;horizontal=0;startSize=0;swimlaneHead=0;swimlaneBody=0;top=0;left=0;bottom=0;right=0;collapsible=0;dropTarget=0;fillColor=none;points=[[0,0.5],[1,0.5]];portConstraint=eastwest;strokeColor=inherit;fontSize=16;" parent="dfx5ZRGHvSyv2vt1D5LN-114" vertex="1">
          <mxGeometry y="60" width="220" height="30" as="geometry" />
        </mxCell>
        <mxCell id="dfx5ZRGHvSyv2vt1D5LN-119" value="" style="shape=partialRectangle;html=1;whiteSpace=wrap;connectable=0;fillColor=none;top=0;left=0;bottom=0;right=0;overflow=hidden;strokeColor=inherit;fontSize=15;fontFamily=EB Garamond;fontSource=https%3A%2F%2Ffonts.googleapis.com%2Fcss%3Ffamily%3DEB%2BGaramond;" parent="dfx5ZRGHvSyv2vt1D5LN-118" vertex="1">
          <mxGeometry width="49" height="30" as="geometry">
            <mxRectangle width="49" height="30" as="alternateBounds" />
          </mxGeometry>
        </mxCell>
        <mxCell id="dfx5ZRGHvSyv2vt1D5LN-120" value="playlist_name" style="shape=partialRectangle;html=1;whiteSpace=wrap;connectable=0;fillColor=none;top=0;left=0;bottom=0;right=0;align=left;spacingLeft=6;overflow=hidden;strokeColor=inherit;fontSize=15;fontFamily=EB Garamond;fontSource=https%3A%2F%2Ffonts.googleapis.com%2Fcss%3Ffamily%3DEB%2BGaramond;" parent="dfx5ZRGHvSyv2vt1D5LN-118" vertex="1">
          <mxGeometry x="49" width="171" height="30" as="geometry">
            <mxRectangle width="171" height="30" as="alternateBounds" />
          </mxGeometry>
        </mxCell>
        <mxCell id="dfx5ZRGHvSyv2vt1D5LN-121" value="" style="shape=tableRow;horizontal=0;startSize=0;swimlaneHead=0;swimlaneBody=0;top=0;left=0;bottom=0;right=0;collapsible=0;dropTarget=0;fillColor=none;points=[[0,0.5],[1,0.5]];portConstraint=eastwest;strokeColor=inherit;fontSize=16;" parent="dfx5ZRGHvSyv2vt1D5LN-114" vertex="1">
          <mxGeometry y="90" width="220" height="30" as="geometry" />
        </mxCell>
        <mxCell id="dfx5ZRGHvSyv2vt1D5LN-122" value="" style="shape=partialRectangle;html=1;whiteSpace=wrap;connectable=0;fillColor=none;top=0;left=0;bottom=0;right=0;overflow=hidden;strokeColor=inherit;fontSize=15;fontFamily=EB Garamond;fontSource=https%3A%2F%2Ffonts.googleapis.com%2Fcss%3Ffamily%3DEB%2BGaramond;" parent="dfx5ZRGHvSyv2vt1D5LN-121" vertex="1">
          <mxGeometry width="49" height="30" as="geometry">
            <mxRectangle width="49" height="30" as="alternateBounds" />
          </mxGeometry>
        </mxCell>
        <mxCell id="dfx5ZRGHvSyv2vt1D5LN-123" value="playlist_genre" style="shape=partialRectangle;html=1;whiteSpace=wrap;connectable=0;fillColor=none;top=0;left=0;bottom=0;right=0;align=left;spacingLeft=6;overflow=hidden;strokeColor=inherit;fontSize=15;fontFamily=EB Garamond;fontSource=https%3A%2F%2Ffonts.googleapis.com%2Fcss%3Ffamily%3DEB%2BGaramond;" parent="dfx5ZRGHvSyv2vt1D5LN-121" vertex="1">
          <mxGeometry x="49" width="171" height="30" as="geometry">
            <mxRectangle width="171" height="30" as="alternateBounds" />
          </mxGeometry>
        </mxCell>
        <mxCell id="dfx5ZRGHvSyv2vt1D5LN-131" style="shape=tableRow;horizontal=0;startSize=0;swimlaneHead=0;swimlaneBody=0;top=0;left=0;bottom=0;right=0;collapsible=0;dropTarget=0;fillColor=none;points=[[0,0.5],[1,0.5]];portConstraint=eastwest;strokeColor=inherit;fontSize=16;" parent="dfx5ZRGHvSyv2vt1D5LN-114" vertex="1">
          <mxGeometry y="120" width="220" height="30" as="geometry" />
        </mxCell>
        <mxCell id="dfx5ZRGHvSyv2vt1D5LN-132" style="shape=partialRectangle;html=1;whiteSpace=wrap;connectable=0;fillColor=none;top=0;left=0;bottom=0;right=0;overflow=hidden;strokeColor=inherit;fontSize=15;fontFamily=EB Garamond;fontSource=https%3A%2F%2Ffonts.googleapis.com%2Fcss%3Ffamily%3DEB%2BGaramond;" parent="dfx5ZRGHvSyv2vt1D5LN-131" vertex="1">
          <mxGeometry width="49" height="30" as="geometry">
            <mxRectangle width="49" height="30" as="alternateBounds" />
          </mxGeometry>
        </mxCell>
        <mxCell id="dfx5ZRGHvSyv2vt1D5LN-133" value="playlist_subgenre" style="shape=partialRectangle;html=1;whiteSpace=wrap;connectable=0;fillColor=none;top=0;left=0;bottom=0;right=0;align=left;spacingLeft=6;overflow=hidden;strokeColor=inherit;fontSize=15;fontFamily=EB Garamond;fontSource=https%3A%2F%2Ffonts.googleapis.com%2Fcss%3Ffamily%3DEB%2BGaramond;" parent="dfx5ZRGHvSyv2vt1D5LN-131" vertex="1">
          <mxGeometry x="49" width="171" height="30" as="geometry">
            <mxRectangle width="171" height="30" as="alternateBounds" />
          </mxGeometry>
        </mxCell>
        <mxCell id="dfx5ZRGHvSyv2vt1D5LN-134" value="tracks" style="shape=table;startSize=30;container=1;collapsible=0;childLayout=tableLayout;fixedRows=1;rowLines=0;fontStyle=1;strokeColor=default;fontSize=15;fontFamily=EB Garamond;fontSource=https%3A%2F%2Ffonts.googleapis.com%2Fcss%3Ffamily%3DEB%2BGaramond;" parent="WIyWlLk6GJQsqaUBKTNV-1" vertex="1">
          <mxGeometry x="1132" y="671" width="220" height="180" as="geometry" />
        </mxCell>
        <mxCell id="dfx5ZRGHvSyv2vt1D5LN-135" value="" style="shape=tableRow;horizontal=0;startSize=0;swimlaneHead=0;swimlaneBody=0;top=0;left=0;bottom=0;right=0;collapsible=0;dropTarget=0;fillColor=none;points=[[0,0.5],[1,0.5]];portConstraint=eastwest;strokeColor=inherit;fontSize=16;" parent="dfx5ZRGHvSyv2vt1D5LN-134" vertex="1">
          <mxGeometry y="30" width="220" height="30" as="geometry" />
        </mxCell>
        <mxCell id="dfx5ZRGHvSyv2vt1D5LN-136" value="PK" style="shape=partialRectangle;html=1;whiteSpace=wrap;connectable=0;fillColor=none;top=0;left=0;bottom=0;right=0;overflow=hidden;pointerEvents=1;strokeColor=inherit;fontSize=15;fontFamily=EB Garamond;fontSource=https%3A%2F%2Ffonts.googleapis.com%2Fcss%3Ffamily%3DEB%2BGaramond;" parent="dfx5ZRGHvSyv2vt1D5LN-135" vertex="1">
          <mxGeometry width="49" height="30" as="geometry">
            <mxRectangle width="49" height="30" as="alternateBounds" />
          </mxGeometry>
        </mxCell>
        <mxCell id="dfx5ZRGHvSyv2vt1D5LN-137" value="&lt;span style=&quot;border-color: var(--border-color); font-size: 15px; text-align: center;&quot;&gt;track_id&lt;/span&gt;" style="shape=partialRectangle;html=1;whiteSpace=wrap;connectable=0;fillColor=none;top=0;left=0;bottom=0;right=0;align=left;spacingLeft=6;overflow=hidden;strokeColor=inherit;fontSize=15;fontFamily=EB Garamond;fontSource=https%3A%2F%2Ffonts.googleapis.com%2Fcss%3Ffamily%3DEB%2BGaramond;" parent="dfx5ZRGHvSyv2vt1D5LN-135" vertex="1">
          <mxGeometry x="49" width="171" height="30" as="geometry">
            <mxRectangle width="171" height="30" as="alternateBounds" />
          </mxGeometry>
        </mxCell>
        <mxCell id="dfx5ZRGHvSyv2vt1D5LN-138" value="" style="shape=tableRow;horizontal=0;startSize=0;swimlaneHead=0;swimlaneBody=0;top=0;left=0;bottom=0;right=0;collapsible=0;dropTarget=0;fillColor=none;points=[[0,0.5],[1,0.5]];portConstraint=eastwest;strokeColor=inherit;fontSize=16;" parent="dfx5ZRGHvSyv2vt1D5LN-134" vertex="1">
          <mxGeometry y="60" width="220" height="30" as="geometry" />
        </mxCell>
        <mxCell id="dfx5ZRGHvSyv2vt1D5LN-139" value="" style="shape=partialRectangle;html=1;whiteSpace=wrap;connectable=0;fillColor=none;top=0;left=0;bottom=0;right=0;overflow=hidden;strokeColor=inherit;fontSize=15;fontFamily=EB Garamond;fontSource=https%3A%2F%2Ffonts.googleapis.com%2Fcss%3Ffamily%3DEB%2BGaramond;" parent="dfx5ZRGHvSyv2vt1D5LN-138" vertex="1">
          <mxGeometry width="49" height="30" as="geometry">
            <mxRectangle width="49" height="30" as="alternateBounds" />
          </mxGeometry>
        </mxCell>
        <mxCell id="dfx5ZRGHvSyv2vt1D5LN-140" value="track_name" style="shape=partialRectangle;html=1;whiteSpace=wrap;connectable=0;fillColor=none;top=0;left=0;bottom=0;right=0;align=left;spacingLeft=6;overflow=hidden;strokeColor=inherit;fontSize=15;fontFamily=EB Garamond;fontSource=https%3A%2F%2Ffonts.googleapis.com%2Fcss%3Ffamily%3DEB%2BGaramond;" parent="dfx5ZRGHvSyv2vt1D5LN-138" vertex="1">
          <mxGeometry x="49" width="171" height="30" as="geometry">
            <mxRectangle width="171" height="30" as="alternateBounds" />
          </mxGeometry>
        </mxCell>
        <mxCell id="dfx5ZRGHvSyv2vt1D5LN-141" value="" style="shape=tableRow;horizontal=0;startSize=0;swimlaneHead=0;swimlaneBody=0;top=0;left=0;bottom=0;right=0;collapsible=0;dropTarget=0;fillColor=none;points=[[0,0.5],[1,0.5]];portConstraint=eastwest;strokeColor=inherit;fontSize=16;" parent="dfx5ZRGHvSyv2vt1D5LN-134" vertex="1">
          <mxGeometry y="90" width="220" height="30" as="geometry" />
        </mxCell>
        <mxCell id="dfx5ZRGHvSyv2vt1D5LN-142" value="" style="shape=partialRectangle;html=1;whiteSpace=wrap;connectable=0;fillColor=none;top=0;left=0;bottom=0;right=0;overflow=hidden;strokeColor=inherit;fontSize=15;fontFamily=EB Garamond;fontSource=https%3A%2F%2Ffonts.googleapis.com%2Fcss%3Ffamily%3DEB%2BGaramond;" parent="dfx5ZRGHvSyv2vt1D5LN-141" vertex="1">
          <mxGeometry width="49" height="30" as="geometry">
            <mxRectangle width="49" height="30" as="alternateBounds" />
          </mxGeometry>
        </mxCell>
        <mxCell id="dfx5ZRGHvSyv2vt1D5LN-143" value="track_artist" style="shape=partialRectangle;html=1;whiteSpace=wrap;connectable=0;fillColor=none;top=0;left=0;bottom=0;right=0;align=left;spacingLeft=6;overflow=hidden;strokeColor=inherit;fontSize=15;fontFamily=EB Garamond;fontSource=https%3A%2F%2Ffonts.googleapis.com%2Fcss%3Ffamily%3DEB%2BGaramond;" parent="dfx5ZRGHvSyv2vt1D5LN-141" vertex="1">
          <mxGeometry x="49" width="171" height="30" as="geometry">
            <mxRectangle width="171" height="30" as="alternateBounds" />
          </mxGeometry>
        </mxCell>
        <mxCell id="dfx5ZRGHvSyv2vt1D5LN-144" style="shape=tableRow;horizontal=0;startSize=0;swimlaneHead=0;swimlaneBody=0;top=0;left=0;bottom=0;right=0;collapsible=0;dropTarget=0;fillColor=none;points=[[0,0.5],[1,0.5]];portConstraint=eastwest;strokeColor=inherit;fontSize=16;" parent="dfx5ZRGHvSyv2vt1D5LN-134" vertex="1">
          <mxGeometry y="120" width="220" height="30" as="geometry" />
        </mxCell>
        <mxCell id="dfx5ZRGHvSyv2vt1D5LN-145" style="shape=partialRectangle;html=1;whiteSpace=wrap;connectable=0;fillColor=none;top=0;left=0;bottom=0;right=0;overflow=hidden;strokeColor=inherit;fontSize=15;fontFamily=EB Garamond;fontSource=https%3A%2F%2Ffonts.googleapis.com%2Fcss%3Ffamily%3DEB%2BGaramond;" parent="dfx5ZRGHvSyv2vt1D5LN-144" vertex="1">
          <mxGeometry width="49" height="30" as="geometry">
            <mxRectangle width="49" height="30" as="alternateBounds" />
          </mxGeometry>
        </mxCell>
        <mxCell id="dfx5ZRGHvSyv2vt1D5LN-146" value="track_popularity" style="shape=partialRectangle;html=1;whiteSpace=wrap;connectable=0;fillColor=none;top=0;left=0;bottom=0;right=0;align=left;spacingLeft=6;overflow=hidden;strokeColor=inherit;fontSize=15;fontFamily=EB Garamond;fontSource=https%3A%2F%2Ffonts.googleapis.com%2Fcss%3Ffamily%3DEB%2BGaramond;" parent="dfx5ZRGHvSyv2vt1D5LN-144" vertex="1">
          <mxGeometry x="49" width="171" height="30" as="geometry">
            <mxRectangle width="171" height="30" as="alternateBounds" />
          </mxGeometry>
        </mxCell>
        <mxCell id="d_IvAm214ZQegVvniSVo-0" style="shape=tableRow;horizontal=0;startSize=0;swimlaneHead=0;swimlaneBody=0;top=0;left=0;bottom=0;right=0;collapsible=0;dropTarget=0;fillColor=none;points=[[0,0.5],[1,0.5]];portConstraint=eastwest;strokeColor=inherit;fontSize=16;" parent="dfx5ZRGHvSyv2vt1D5LN-134" vertex="1">
          <mxGeometry y="150" width="220" height="30" as="geometry" />
        </mxCell>
        <mxCell id="d_IvAm214ZQegVvniSVo-1" style="shape=partialRectangle;html=1;whiteSpace=wrap;connectable=0;fillColor=none;top=0;left=0;bottom=0;right=0;overflow=hidden;strokeColor=inherit;fontSize=15;fontFamily=EB Garamond;fontSource=https%3A%2F%2Ffonts.googleapis.com%2Fcss%3Ffamily%3DEB%2BGaramond;" parent="d_IvAm214ZQegVvniSVo-0" vertex="1">
          <mxGeometry width="49" height="30" as="geometry">
            <mxRectangle width="49" height="30" as="alternateBounds" />
          </mxGeometry>
        </mxCell>
        <mxCell id="d_IvAm214ZQegVvniSVo-2" value="duration_ms" style="shape=partialRectangle;html=1;whiteSpace=wrap;connectable=0;fillColor=none;top=0;left=0;bottom=0;right=0;align=left;spacingLeft=6;overflow=hidden;strokeColor=inherit;fontSize=15;fontFamily=EB Garamond;fontSource=https%3A%2F%2Ffonts.googleapis.com%2Fcss%3Ffamily%3DEB%2BGaramond;" parent="d_IvAm214ZQegVvniSVo-0" vertex="1">
          <mxGeometry x="49" width="171" height="30" as="geometry">
            <mxRectangle width="171" height="30" as="alternateBounds" />
          </mxGeometry>
        </mxCell>
        <mxCell id="dfx5ZRGHvSyv2vt1D5LN-155" style="edgeStyle=orthogonalEdgeStyle;rounded=0;orthogonalLoop=1;jettySize=auto;html=1;exitX=1;exitY=0.5;exitDx=0;exitDy=0;entryX=0;entryY=0.5;entryDx=0;entryDy=0;startArrow=ERmandOne;startFill=0;endArrow=ERoneToMany;endFill=0;" parent="WIyWlLk6GJQsqaUBKTNV-1" source="dfx5ZRGHvSyv2vt1D5LN-115" target="dfx5ZRGHvSyv2vt1D5LN-269" edge="1">
          <mxGeometry relative="1" as="geometry">
            <Array as="points">
              <mxPoint x="1088" y="693" />
              <mxPoint x="1088" y="885" />
              <mxPoint x="978" y="885" />
              <mxPoint x="978" y="979" />
            </Array>
          </mxGeometry>
        </mxCell>
        <mxCell id="dfx5ZRGHvSyv2vt1D5LN-156" value="track_characteristics" style="shape=table;startSize=30;container=1;collapsible=0;childLayout=tableLayout;fixedRows=1;rowLines=0;fontStyle=1;strokeColor=default;fontSize=15;fontFamily=EB Garamond;fontSource=https%3A%2F%2Ffonts.googleapis.com%2Fcss%3Ffamily%3DEB%2BGaramond;" parent="WIyWlLk6GJQsqaUBKTNV-1" vertex="1">
          <mxGeometry x="1131" y="230" width="220" height="390" as="geometry" />
        </mxCell>
        <mxCell id="dfx5ZRGHvSyv2vt1D5LN-157" value="" style="shape=tableRow;horizontal=0;startSize=0;swimlaneHead=0;swimlaneBody=0;top=0;left=0;bottom=0;right=0;collapsible=0;dropTarget=0;fillColor=none;points=[[0,0.5],[1,0.5]];portConstraint=eastwest;strokeColor=inherit;fontSize=16;" parent="dfx5ZRGHvSyv2vt1D5LN-156" vertex="1">
          <mxGeometry y="30" width="220" height="30" as="geometry" />
        </mxCell>
        <mxCell id="dfx5ZRGHvSyv2vt1D5LN-158" value="FK" style="shape=partialRectangle;html=1;whiteSpace=wrap;connectable=0;fillColor=none;top=0;left=0;bottom=0;right=0;overflow=hidden;pointerEvents=1;strokeColor=inherit;fontSize=15;fontFamily=EB Garamond;fontSource=https%3A%2F%2Ffonts.googleapis.com%2Fcss%3Ffamily%3DEB%2BGaramond;" parent="dfx5ZRGHvSyv2vt1D5LN-157" vertex="1">
          <mxGeometry width="49" height="30" as="geometry">
            <mxRectangle width="49" height="30" as="alternateBounds" />
          </mxGeometry>
        </mxCell>
        <mxCell id="dfx5ZRGHvSyv2vt1D5LN-159" value="&lt;span style=&quot;border-color: var(--border-color); font-size: 15px; text-align: center;&quot;&gt;track_id&lt;/span&gt;" style="shape=partialRectangle;html=1;whiteSpace=wrap;connectable=0;fillColor=none;top=0;left=0;bottom=0;right=0;align=left;spacingLeft=6;overflow=hidden;strokeColor=inherit;fontSize=15;fontFamily=EB Garamond;fontSource=https%3A%2F%2Ffonts.googleapis.com%2Fcss%3Ffamily%3DEB%2BGaramond;" parent="dfx5ZRGHvSyv2vt1D5LN-157" vertex="1">
          <mxGeometry x="49" width="171" height="30" as="geometry">
            <mxRectangle width="171" height="30" as="alternateBounds" />
          </mxGeometry>
        </mxCell>
        <mxCell id="dfx5ZRGHvSyv2vt1D5LN-163" value="" style="shape=tableRow;horizontal=0;startSize=0;swimlaneHead=0;swimlaneBody=0;top=0;left=0;bottom=0;right=0;collapsible=0;dropTarget=0;fillColor=none;points=[[0,0.5],[1,0.5]];portConstraint=eastwest;strokeColor=inherit;fontSize=16;" parent="dfx5ZRGHvSyv2vt1D5LN-156" vertex="1">
          <mxGeometry y="60" width="220" height="30" as="geometry" />
        </mxCell>
        <mxCell id="dfx5ZRGHvSyv2vt1D5LN-164" value="" style="shape=partialRectangle;html=1;whiteSpace=wrap;connectable=0;fillColor=none;top=0;left=0;bottom=0;right=0;overflow=hidden;strokeColor=inherit;fontSize=15;fontFamily=EB Garamond;fontSource=https%3A%2F%2Ffonts.googleapis.com%2Fcss%3Ffamily%3DEB%2BGaramond;" parent="dfx5ZRGHvSyv2vt1D5LN-163" vertex="1">
          <mxGeometry width="49" height="30" as="geometry">
            <mxRectangle width="49" height="30" as="alternateBounds" />
          </mxGeometry>
        </mxCell>
        <mxCell id="dfx5ZRGHvSyv2vt1D5LN-165" value="danceability" style="shape=partialRectangle;html=1;whiteSpace=wrap;connectable=0;fillColor=none;top=0;left=0;bottom=0;right=0;align=left;spacingLeft=6;overflow=hidden;strokeColor=inherit;fontSize=15;fontFamily=EB Garamond;fontSource=https%3A%2F%2Ffonts.googleapis.com%2Fcss%3Ffamily%3DEB%2BGaramond;" parent="dfx5ZRGHvSyv2vt1D5LN-163" vertex="1">
          <mxGeometry x="49" width="171" height="30" as="geometry">
            <mxRectangle width="171" height="30" as="alternateBounds" />
          </mxGeometry>
        </mxCell>
        <mxCell id="dfx5ZRGHvSyv2vt1D5LN-166" style="shape=tableRow;horizontal=0;startSize=0;swimlaneHead=0;swimlaneBody=0;top=0;left=0;bottom=0;right=0;collapsible=0;dropTarget=0;fillColor=none;points=[[0,0.5],[1,0.5]];portConstraint=eastwest;strokeColor=inherit;fontSize=16;" parent="dfx5ZRGHvSyv2vt1D5LN-156" vertex="1">
          <mxGeometry y="90" width="220" height="30" as="geometry" />
        </mxCell>
        <mxCell id="dfx5ZRGHvSyv2vt1D5LN-167" style="shape=partialRectangle;html=1;whiteSpace=wrap;connectable=0;fillColor=none;top=0;left=0;bottom=0;right=0;overflow=hidden;strokeColor=inherit;fontSize=15;fontFamily=EB Garamond;fontSource=https%3A%2F%2Ffonts.googleapis.com%2Fcss%3Ffamily%3DEB%2BGaramond;" parent="dfx5ZRGHvSyv2vt1D5LN-166" vertex="1">
          <mxGeometry width="49" height="30" as="geometry">
            <mxRectangle width="49" height="30" as="alternateBounds" />
          </mxGeometry>
        </mxCell>
        <mxCell id="dfx5ZRGHvSyv2vt1D5LN-168" value="energy" style="shape=partialRectangle;html=1;whiteSpace=wrap;connectable=0;fillColor=none;top=0;left=0;bottom=0;right=0;align=left;spacingLeft=6;overflow=hidden;strokeColor=inherit;fontSize=15;fontFamily=EB Garamond;fontSource=https%3A%2F%2Ffonts.googleapis.com%2Fcss%3Ffamily%3DEB%2BGaramond;" parent="dfx5ZRGHvSyv2vt1D5LN-166" vertex="1">
          <mxGeometry x="49" width="171" height="30" as="geometry">
            <mxRectangle width="171" height="30" as="alternateBounds" />
          </mxGeometry>
        </mxCell>
        <mxCell id="d_IvAm214ZQegVvniSVo-12" style="shape=tableRow;horizontal=0;startSize=0;swimlaneHead=0;swimlaneBody=0;top=0;left=0;bottom=0;right=0;collapsible=0;dropTarget=0;fillColor=none;points=[[0,0.5],[1,0.5]];portConstraint=eastwest;strokeColor=inherit;fontSize=16;" parent="dfx5ZRGHvSyv2vt1D5LN-156" vertex="1">
          <mxGeometry y="120" width="220" height="30" as="geometry" />
        </mxCell>
        <mxCell id="d_IvAm214ZQegVvniSVo-13" style="shape=partialRectangle;html=1;whiteSpace=wrap;connectable=0;fillColor=none;top=0;left=0;bottom=0;right=0;overflow=hidden;strokeColor=inherit;fontSize=15;fontFamily=EB Garamond;fontSource=https%3A%2F%2Ffonts.googleapis.com%2Fcss%3Ffamily%3DEB%2BGaramond;" parent="d_IvAm214ZQegVvniSVo-12" vertex="1">
          <mxGeometry width="49" height="30" as="geometry">
            <mxRectangle width="49" height="30" as="alternateBounds" />
          </mxGeometry>
        </mxCell>
        <mxCell id="d_IvAm214ZQegVvniSVo-14" value="key_" style="shape=partialRectangle;html=1;whiteSpace=wrap;connectable=0;fillColor=none;top=0;left=0;bottom=0;right=0;align=left;spacingLeft=6;overflow=hidden;strokeColor=inherit;fontSize=15;fontFamily=EB Garamond;fontSource=https%3A%2F%2Ffonts.googleapis.com%2Fcss%3Ffamily%3DEB%2BGaramond;" parent="d_IvAm214ZQegVvniSVo-12" vertex="1">
          <mxGeometry x="49" width="171" height="30" as="geometry">
            <mxRectangle width="171" height="30" as="alternateBounds" />
          </mxGeometry>
        </mxCell>
        <mxCell id="d_IvAm214ZQegVvniSVo-9" style="shape=tableRow;horizontal=0;startSize=0;swimlaneHead=0;swimlaneBody=0;top=0;left=0;bottom=0;right=0;collapsible=0;dropTarget=0;fillColor=none;points=[[0,0.5],[1,0.5]];portConstraint=eastwest;strokeColor=inherit;fontSize=16;" parent="dfx5ZRGHvSyv2vt1D5LN-156" vertex="1">
          <mxGeometry y="150" width="220" height="30" as="geometry" />
        </mxCell>
        <mxCell id="d_IvAm214ZQegVvniSVo-10" style="shape=partialRectangle;html=1;whiteSpace=wrap;connectable=0;fillColor=none;top=0;left=0;bottom=0;right=0;overflow=hidden;strokeColor=inherit;fontSize=15;fontFamily=EB Garamond;fontSource=https%3A%2F%2Ffonts.googleapis.com%2Fcss%3Ffamily%3DEB%2BGaramond;" parent="d_IvAm214ZQegVvniSVo-9" vertex="1">
          <mxGeometry width="49" height="30" as="geometry">
            <mxRectangle width="49" height="30" as="alternateBounds" />
          </mxGeometry>
        </mxCell>
        <mxCell id="d_IvAm214ZQegVvniSVo-11" value="loudness" style="shape=partialRectangle;html=1;whiteSpace=wrap;connectable=0;fillColor=none;top=0;left=0;bottom=0;right=0;align=left;spacingLeft=6;overflow=hidden;strokeColor=inherit;fontSize=15;fontFamily=EB Garamond;fontSource=https%3A%2F%2Ffonts.googleapis.com%2Fcss%3Ffamily%3DEB%2BGaramond;" parent="d_IvAm214ZQegVvniSVo-9" vertex="1">
          <mxGeometry x="49" width="171" height="30" as="geometry">
            <mxRectangle width="171" height="30" as="alternateBounds" />
          </mxGeometry>
        </mxCell>
        <mxCell id="d_IvAm214ZQegVvniSVo-6" style="shape=tableRow;horizontal=0;startSize=0;swimlaneHead=0;swimlaneBody=0;top=0;left=0;bottom=0;right=0;collapsible=0;dropTarget=0;fillColor=none;points=[[0,0.5],[1,0.5]];portConstraint=eastwest;strokeColor=inherit;fontSize=16;" parent="dfx5ZRGHvSyv2vt1D5LN-156" vertex="1">
          <mxGeometry y="180" width="220" height="30" as="geometry" />
        </mxCell>
        <mxCell id="d_IvAm214ZQegVvniSVo-7" style="shape=partialRectangle;html=1;whiteSpace=wrap;connectable=0;fillColor=none;top=0;left=0;bottom=0;right=0;overflow=hidden;strokeColor=inherit;fontSize=15;fontFamily=EB Garamond;fontSource=https%3A%2F%2Ffonts.googleapis.com%2Fcss%3Ffamily%3DEB%2BGaramond;" parent="d_IvAm214ZQegVvniSVo-6" vertex="1">
          <mxGeometry width="49" height="30" as="geometry">
            <mxRectangle width="49" height="30" as="alternateBounds" />
          </mxGeometry>
        </mxCell>
        <mxCell id="d_IvAm214ZQegVvniSVo-8" value="mode" style="shape=partialRectangle;html=1;whiteSpace=wrap;connectable=0;fillColor=none;top=0;left=0;bottom=0;right=0;align=left;spacingLeft=6;overflow=hidden;strokeColor=inherit;fontSize=15;fontFamily=EB Garamond;fontSource=https%3A%2F%2Ffonts.googleapis.com%2Fcss%3Ffamily%3DEB%2BGaramond;" parent="d_IvAm214ZQegVvniSVo-6" vertex="1">
          <mxGeometry x="49" width="171" height="30" as="geometry">
            <mxRectangle width="171" height="30" as="alternateBounds" />
          </mxGeometry>
        </mxCell>
        <mxCell id="d_IvAm214ZQegVvniSVo-3" style="shape=tableRow;horizontal=0;startSize=0;swimlaneHead=0;swimlaneBody=0;top=0;left=0;bottom=0;right=0;collapsible=0;dropTarget=0;fillColor=none;points=[[0,0.5],[1,0.5]];portConstraint=eastwest;strokeColor=inherit;fontSize=16;" parent="dfx5ZRGHvSyv2vt1D5LN-156" vertex="1">
          <mxGeometry y="210" width="220" height="30" as="geometry" />
        </mxCell>
        <mxCell id="d_IvAm214ZQegVvniSVo-4" style="shape=partialRectangle;html=1;whiteSpace=wrap;connectable=0;fillColor=none;top=0;left=0;bottom=0;right=0;overflow=hidden;strokeColor=inherit;fontSize=15;fontFamily=EB Garamond;fontSource=https%3A%2F%2Ffonts.googleapis.com%2Fcss%3Ffamily%3DEB%2BGaramond;" parent="d_IvAm214ZQegVvniSVo-3" vertex="1">
          <mxGeometry width="49" height="30" as="geometry">
            <mxRectangle width="49" height="30" as="alternateBounds" />
          </mxGeometry>
        </mxCell>
        <mxCell id="d_IvAm214ZQegVvniSVo-5" value="speechiness" style="shape=partialRectangle;html=1;whiteSpace=wrap;connectable=0;fillColor=none;top=0;left=0;bottom=0;right=0;align=left;spacingLeft=6;overflow=hidden;strokeColor=inherit;fontSize=15;fontFamily=EB Garamond;fontSource=https%3A%2F%2Ffonts.googleapis.com%2Fcss%3Ffamily%3DEB%2BGaramond;" parent="d_IvAm214ZQegVvniSVo-3" vertex="1">
          <mxGeometry x="49" width="171" height="30" as="geometry">
            <mxRectangle width="171" height="30" as="alternateBounds" />
          </mxGeometry>
        </mxCell>
        <mxCell id="d_IvAm214ZQegVvniSVo-24" style="shape=tableRow;horizontal=0;startSize=0;swimlaneHead=0;swimlaneBody=0;top=0;left=0;bottom=0;right=0;collapsible=0;dropTarget=0;fillColor=none;points=[[0,0.5],[1,0.5]];portConstraint=eastwest;strokeColor=inherit;fontSize=16;" parent="dfx5ZRGHvSyv2vt1D5LN-156" vertex="1">
          <mxGeometry y="240" width="220" height="30" as="geometry" />
        </mxCell>
        <mxCell id="d_IvAm214ZQegVvniSVo-25" style="shape=partialRectangle;html=1;whiteSpace=wrap;connectable=0;fillColor=none;top=0;left=0;bottom=0;right=0;overflow=hidden;strokeColor=inherit;fontSize=15;fontFamily=EB Garamond;fontSource=https%3A%2F%2Ffonts.googleapis.com%2Fcss%3Ffamily%3DEB%2BGaramond;" parent="d_IvAm214ZQegVvniSVo-24" vertex="1">
          <mxGeometry width="49" height="30" as="geometry">
            <mxRectangle width="49" height="30" as="alternateBounds" />
          </mxGeometry>
        </mxCell>
        <mxCell id="d_IvAm214ZQegVvniSVo-26" value="acousticness" style="shape=partialRectangle;html=1;whiteSpace=wrap;connectable=0;fillColor=none;top=0;left=0;bottom=0;right=0;align=left;spacingLeft=6;overflow=hidden;strokeColor=inherit;fontSize=15;fontFamily=EB Garamond;fontSource=https%3A%2F%2Ffonts.googleapis.com%2Fcss%3Ffamily%3DEB%2BGaramond;" parent="d_IvAm214ZQegVvniSVo-24" vertex="1">
          <mxGeometry x="49" width="171" height="30" as="geometry">
            <mxRectangle width="171" height="30" as="alternateBounds" />
          </mxGeometry>
        </mxCell>
        <mxCell id="d_IvAm214ZQegVvniSVo-21" style="shape=tableRow;horizontal=0;startSize=0;swimlaneHead=0;swimlaneBody=0;top=0;left=0;bottom=0;right=0;collapsible=0;dropTarget=0;fillColor=none;points=[[0,0.5],[1,0.5]];portConstraint=eastwest;strokeColor=inherit;fontSize=16;" parent="dfx5ZRGHvSyv2vt1D5LN-156" vertex="1">
          <mxGeometry y="270" width="220" height="30" as="geometry" />
        </mxCell>
        <mxCell id="d_IvAm214ZQegVvniSVo-22" style="shape=partialRectangle;html=1;whiteSpace=wrap;connectable=0;fillColor=none;top=0;left=0;bottom=0;right=0;overflow=hidden;strokeColor=inherit;fontSize=15;fontFamily=EB Garamond;fontSource=https%3A%2F%2Ffonts.googleapis.com%2Fcss%3Ffamily%3DEB%2BGaramond;" parent="d_IvAm214ZQegVvniSVo-21" vertex="1">
          <mxGeometry width="49" height="30" as="geometry">
            <mxRectangle width="49" height="30" as="alternateBounds" />
          </mxGeometry>
        </mxCell>
        <mxCell id="d_IvAm214ZQegVvniSVo-23" value="instrumentalness" style="shape=partialRectangle;html=1;whiteSpace=wrap;connectable=0;fillColor=none;top=0;left=0;bottom=0;right=0;align=left;spacingLeft=6;overflow=hidden;strokeColor=inherit;fontSize=15;fontFamily=EB Garamond;fontSource=https%3A%2F%2Ffonts.googleapis.com%2Fcss%3Ffamily%3DEB%2BGaramond;" parent="d_IvAm214ZQegVvniSVo-21" vertex="1">
          <mxGeometry x="49" width="171" height="30" as="geometry">
            <mxRectangle width="171" height="30" as="alternateBounds" />
          </mxGeometry>
        </mxCell>
        <mxCell id="d_IvAm214ZQegVvniSVo-27" style="shape=tableRow;horizontal=0;startSize=0;swimlaneHead=0;swimlaneBody=0;top=0;left=0;bottom=0;right=0;collapsible=0;dropTarget=0;fillColor=none;points=[[0,0.5],[1,0.5]];portConstraint=eastwest;strokeColor=inherit;fontSize=16;" parent="dfx5ZRGHvSyv2vt1D5LN-156" vertex="1">
          <mxGeometry y="300" width="220" height="30" as="geometry" />
        </mxCell>
        <mxCell id="d_IvAm214ZQegVvniSVo-28" style="shape=partialRectangle;html=1;whiteSpace=wrap;connectable=0;fillColor=none;top=0;left=0;bottom=0;right=0;overflow=hidden;strokeColor=inherit;fontSize=15;fontFamily=EB Garamond;fontSource=https%3A%2F%2Ffonts.googleapis.com%2Fcss%3Ffamily%3DEB%2BGaramond;" parent="d_IvAm214ZQegVvniSVo-27" vertex="1">
          <mxGeometry width="49" height="30" as="geometry">
            <mxRectangle width="49" height="30" as="alternateBounds" />
          </mxGeometry>
        </mxCell>
        <mxCell id="d_IvAm214ZQegVvniSVo-29" value="liveness" style="shape=partialRectangle;html=1;whiteSpace=wrap;connectable=0;fillColor=none;top=0;left=0;bottom=0;right=0;align=left;spacingLeft=6;overflow=hidden;strokeColor=inherit;fontSize=15;fontFamily=EB Garamond;fontSource=https%3A%2F%2Ffonts.googleapis.com%2Fcss%3Ffamily%3DEB%2BGaramond;" parent="d_IvAm214ZQegVvniSVo-27" vertex="1">
          <mxGeometry x="49" width="171" height="30" as="geometry">
            <mxRectangle width="171" height="30" as="alternateBounds" />
          </mxGeometry>
        </mxCell>
        <mxCell id="d_IvAm214ZQegVvniSVo-33" style="shape=tableRow;horizontal=0;startSize=0;swimlaneHead=0;swimlaneBody=0;top=0;left=0;bottom=0;right=0;collapsible=0;dropTarget=0;fillColor=none;points=[[0,0.5],[1,0.5]];portConstraint=eastwest;strokeColor=inherit;fontSize=16;" parent="dfx5ZRGHvSyv2vt1D5LN-156" vertex="1">
          <mxGeometry y="330" width="220" height="30" as="geometry" />
        </mxCell>
        <mxCell id="d_IvAm214ZQegVvniSVo-34" style="shape=partialRectangle;html=1;whiteSpace=wrap;connectable=0;fillColor=none;top=0;left=0;bottom=0;right=0;overflow=hidden;strokeColor=inherit;fontSize=15;fontFamily=EB Garamond;fontSource=https%3A%2F%2Ffonts.googleapis.com%2Fcss%3Ffamily%3DEB%2BGaramond;" parent="d_IvAm214ZQegVvniSVo-33" vertex="1">
          <mxGeometry width="49" height="30" as="geometry">
            <mxRectangle width="49" height="30" as="alternateBounds" />
          </mxGeometry>
        </mxCell>
        <mxCell id="d_IvAm214ZQegVvniSVo-35" value="valence" style="shape=partialRectangle;html=1;whiteSpace=wrap;connectable=0;fillColor=none;top=0;left=0;bottom=0;right=0;align=left;spacingLeft=6;overflow=hidden;strokeColor=inherit;fontSize=15;fontFamily=EB Garamond;fontSource=https%3A%2F%2Ffonts.googleapis.com%2Fcss%3Ffamily%3DEB%2BGaramond;" parent="d_IvAm214ZQegVvniSVo-33" vertex="1">
          <mxGeometry x="49" width="171" height="30" as="geometry">
            <mxRectangle width="171" height="30" as="alternateBounds" />
          </mxGeometry>
        </mxCell>
        <mxCell id="d_IvAm214ZQegVvniSVo-36" style="shape=tableRow;horizontal=0;startSize=0;swimlaneHead=0;swimlaneBody=0;top=0;left=0;bottom=0;right=0;collapsible=0;dropTarget=0;fillColor=none;points=[[0,0.5],[1,0.5]];portConstraint=eastwest;strokeColor=inherit;fontSize=16;" parent="dfx5ZRGHvSyv2vt1D5LN-156" vertex="1">
          <mxGeometry y="360" width="220" height="30" as="geometry" />
        </mxCell>
        <mxCell id="d_IvAm214ZQegVvniSVo-37" style="shape=partialRectangle;html=1;whiteSpace=wrap;connectable=0;fillColor=none;top=0;left=0;bottom=0;right=0;overflow=hidden;strokeColor=inherit;fontSize=15;fontFamily=EB Garamond;fontSource=https%3A%2F%2Ffonts.googleapis.com%2Fcss%3Ffamily%3DEB%2BGaramond;" parent="d_IvAm214ZQegVvniSVo-36" vertex="1">
          <mxGeometry width="49" height="30" as="geometry">
            <mxRectangle width="49" height="30" as="alternateBounds" />
          </mxGeometry>
        </mxCell>
        <mxCell id="d_IvAm214ZQegVvniSVo-38" value="tempo" style="shape=partialRectangle;html=1;whiteSpace=wrap;connectable=0;fillColor=none;top=0;left=0;bottom=0;right=0;align=left;spacingLeft=6;overflow=hidden;strokeColor=inherit;fontSize=15;fontFamily=EB Garamond;fontSource=https%3A%2F%2Ffonts.googleapis.com%2Fcss%3Ffamily%3DEB%2BGaramond;" parent="d_IvAm214ZQegVvniSVo-36" vertex="1">
          <mxGeometry x="49" width="171" height="30" as="geometry">
            <mxRectangle width="171" height="30" as="alternateBounds" />
          </mxGeometry>
        </mxCell>
        <mxCell id="dfx5ZRGHvSyv2vt1D5LN-189" style="edgeStyle=orthogonalEdgeStyle;rounded=0;orthogonalLoop=1;jettySize=auto;html=1;endArrow=ERoneToMany;endFill=0;startArrow=ERone;startFill=0;" parent="WIyWlLk6GJQsqaUBKTNV-1" edge="1">
          <mxGeometry relative="1" as="geometry" />
        </mxCell>
        <mxCell id="dfx5ZRGHvSyv2vt1D5LN-173" value="albums" style="shape=table;startSize=30;container=1;collapsible=0;childLayout=tableLayout;fixedRows=1;rowLines=0;fontStyle=1;strokeColor=default;fontSize=15;fontFamily=EB Garamond;fontSource=https%3A%2F%2Ffonts.googleapis.com%2Fcss%3Ffamily%3DEB%2BGaramond;" parent="WIyWlLk6GJQsqaUBKTNV-1" vertex="1">
          <mxGeometry x="1378" y="852" width="220" height="120" as="geometry" />
        </mxCell>
        <mxCell id="dfx5ZRGHvSyv2vt1D5LN-174" value="" style="shape=tableRow;horizontal=0;startSize=0;swimlaneHead=0;swimlaneBody=0;top=0;left=0;bottom=0;right=0;collapsible=0;dropTarget=0;fillColor=none;points=[[0,0.5],[1,0.5]];portConstraint=eastwest;strokeColor=inherit;fontSize=16;" parent="dfx5ZRGHvSyv2vt1D5LN-173" vertex="1">
          <mxGeometry y="30" width="220" height="30" as="geometry" />
        </mxCell>
        <mxCell id="dfx5ZRGHvSyv2vt1D5LN-175" value="PK" style="shape=partialRectangle;html=1;whiteSpace=wrap;connectable=0;fillColor=none;top=0;left=0;bottom=0;right=0;overflow=hidden;pointerEvents=1;strokeColor=inherit;fontSize=15;fontFamily=EB Garamond;fontSource=https%3A%2F%2Ffonts.googleapis.com%2Fcss%3Ffamily%3DEB%2BGaramond;" parent="dfx5ZRGHvSyv2vt1D5LN-174" vertex="1">
          <mxGeometry width="49" height="30" as="geometry">
            <mxRectangle width="49" height="30" as="alternateBounds" />
          </mxGeometry>
        </mxCell>
        <mxCell id="dfx5ZRGHvSyv2vt1D5LN-176" value="&lt;span style=&quot;border-color: var(--border-color); font-size: 15px; text-align: center;&quot;&gt;track_album_id&lt;/span&gt;" style="shape=partialRectangle;html=1;whiteSpace=wrap;connectable=0;fillColor=none;top=0;left=0;bottom=0;right=0;align=left;spacingLeft=6;overflow=hidden;strokeColor=inherit;fontSize=15;fontFamily=EB Garamond;fontSource=https%3A%2F%2Ffonts.googleapis.com%2Fcss%3Ffamily%3DEB%2BGaramond;" parent="dfx5ZRGHvSyv2vt1D5LN-174" vertex="1">
          <mxGeometry x="49" width="171" height="30" as="geometry">
            <mxRectangle width="171" height="30" as="alternateBounds" />
          </mxGeometry>
        </mxCell>
        <mxCell id="dfx5ZRGHvSyv2vt1D5LN-177" value="" style="shape=tableRow;horizontal=0;startSize=0;swimlaneHead=0;swimlaneBody=0;top=0;left=0;bottom=0;right=0;collapsible=0;dropTarget=0;fillColor=none;points=[[0,0.5],[1,0.5]];portConstraint=eastwest;strokeColor=inherit;fontSize=16;" parent="dfx5ZRGHvSyv2vt1D5LN-173" vertex="1">
          <mxGeometry y="60" width="220" height="30" as="geometry" />
        </mxCell>
        <mxCell id="dfx5ZRGHvSyv2vt1D5LN-178" value="" style="shape=partialRectangle;html=1;whiteSpace=wrap;connectable=0;fillColor=none;top=0;left=0;bottom=0;right=0;overflow=hidden;strokeColor=inherit;fontSize=15;fontFamily=EB Garamond;fontSource=https%3A%2F%2Ffonts.googleapis.com%2Fcss%3Ffamily%3DEB%2BGaramond;" parent="dfx5ZRGHvSyv2vt1D5LN-177" vertex="1">
          <mxGeometry width="49" height="30" as="geometry">
            <mxRectangle width="49" height="30" as="alternateBounds" />
          </mxGeometry>
        </mxCell>
        <mxCell id="dfx5ZRGHvSyv2vt1D5LN-179" value="track_album_name" style="shape=partialRectangle;html=1;whiteSpace=wrap;connectable=0;fillColor=none;top=0;left=0;bottom=0;right=0;align=left;spacingLeft=6;overflow=hidden;strokeColor=inherit;fontSize=15;fontFamily=EB Garamond;fontSource=https%3A%2F%2Ffonts.googleapis.com%2Fcss%3Ffamily%3DEB%2BGaramond;" parent="dfx5ZRGHvSyv2vt1D5LN-177" vertex="1">
          <mxGeometry x="49" width="171" height="30" as="geometry">
            <mxRectangle width="171" height="30" as="alternateBounds" />
          </mxGeometry>
        </mxCell>
        <mxCell id="dfx5ZRGHvSyv2vt1D5LN-180" value="" style="shape=tableRow;horizontal=0;startSize=0;swimlaneHead=0;swimlaneBody=0;top=0;left=0;bottom=0;right=0;collapsible=0;dropTarget=0;fillColor=none;points=[[0,0.5],[1,0.5]];portConstraint=eastwest;strokeColor=inherit;fontSize=16;" parent="dfx5ZRGHvSyv2vt1D5LN-173" vertex="1">
          <mxGeometry y="90" width="220" height="30" as="geometry" />
        </mxCell>
        <mxCell id="dfx5ZRGHvSyv2vt1D5LN-181" value="" style="shape=partialRectangle;html=1;whiteSpace=wrap;connectable=0;fillColor=none;top=0;left=0;bottom=0;right=0;overflow=hidden;strokeColor=inherit;fontSize=15;fontFamily=EB Garamond;fontSource=https%3A%2F%2Ffonts.googleapis.com%2Fcss%3Ffamily%3DEB%2BGaramond;" parent="dfx5ZRGHvSyv2vt1D5LN-180" vertex="1">
          <mxGeometry width="49" height="30" as="geometry">
            <mxRectangle width="49" height="30" as="alternateBounds" />
          </mxGeometry>
        </mxCell>
        <mxCell id="dfx5ZRGHvSyv2vt1D5LN-182" value="track_album_release_date" style="shape=partialRectangle;html=1;whiteSpace=wrap;connectable=0;fillColor=none;top=0;left=0;bottom=0;right=0;align=left;spacingLeft=6;overflow=hidden;strokeColor=inherit;fontSize=15;fontFamily=EB Garamond;fontSource=https%3A%2F%2Ffonts.googleapis.com%2Fcss%3Ffamily%3DEB%2BGaramond;" parent="dfx5ZRGHvSyv2vt1D5LN-180" vertex="1">
          <mxGeometry x="49" width="171" height="30" as="geometry">
            <mxRectangle width="171" height="30" as="alternateBounds" />
          </mxGeometry>
        </mxCell>
        <mxCell id="dfx5ZRGHvSyv2vt1D5LN-218" value="mode" style="ellipse;whiteSpace=wrap;html=1;rounded=0;fontFamily=EB Garamond;fontSource=https%3A%2F%2Ffonts.googleapis.com%2Fcss%3Ffamily%3DEB%2BGaramond;fontSize=15;" parent="WIyWlLk6GJQsqaUBKTNV-1" vertex="1">
          <mxGeometry x="278" y="1060" width="130" height="70" as="geometry" />
        </mxCell>
        <mxCell id="dfx5ZRGHvSyv2vt1D5LN-219" value="track_id" style="ellipse;whiteSpace=wrap;html=1;rounded=0;fontFamily=EB Garamond;fontSource=https%3A%2F%2Ffonts.googleapis.com%2Fcss%3Ffamily%3DEB%2BGaramond;fontSize=15;" parent="WIyWlLk6GJQsqaUBKTNV-1" vertex="1">
          <mxGeometry x="278" y="706" width="130" height="70" as="geometry" />
        </mxCell>
        <mxCell id="dfx5ZRGHvSyv2vt1D5LN-220" value="" style="rounded=0;orthogonalLoop=1;jettySize=auto;html=1;fontFamily=EB Garamond;fontSource=https%3A%2F%2Ffonts.googleapis.com%2Fcss%3Ffamily%3DEB%2BGaramond;endArrow=none;endFill=0;fontStyle=0;entryX=0.5;entryY=1;entryDx=0;entryDy=0;exitX=0.75;exitY=0;exitDx=0;exitDy=0;" parent="WIyWlLk6GJQsqaUBKTNV-1" source="d_IvAm214ZQegVvniSVo-48" target="dfx5ZRGHvSyv2vt1D5LN-219" edge="1">
          <mxGeometry relative="1" as="geometry">
            <mxPoint x="290.5126874164753" y="849.370148075096" as="sourcePoint" />
            <mxPoint x="584" y="708" as="targetPoint" />
          </mxGeometry>
        </mxCell>
        <mxCell id="dfx5ZRGHvSyv2vt1D5LN-221" value="" style="rounded=0;orthogonalLoop=1;jettySize=auto;html=1;fontFamily=EB Garamond;fontSource=https%3A%2F%2Ffonts.googleapis.com%2Fcss%3Ffamily%3DEB%2BGaramond;endArrow=none;endFill=0;fontStyle=0;exitX=0.5;exitY=0;exitDx=0;exitDy=0;entryX=0.75;entryY=1;entryDx=0;entryDy=0;" parent="WIyWlLk6GJQsqaUBKTNV-1" source="dfx5ZRGHvSyv2vt1D5LN-218" target="d_IvAm214ZQegVvniSVo-48" edge="1">
          <mxGeometry relative="1" as="geometry">
            <mxPoint x="623" y="774" as="sourcePoint" />
            <mxPoint x="267" y="917.0000000000002" as="targetPoint" />
          </mxGeometry>
        </mxCell>
        <mxCell id="dfx5ZRGHvSyv2vt1D5LN-222" style="edgeStyle=orthogonalEdgeStyle;rounded=0;orthogonalLoop=1;jettySize=auto;html=1;exitX=1;exitY=0.5;exitDx=0;exitDy=0;entryX=1;entryY=0.5;entryDx=0;entryDy=0;endArrow=ERone;endFill=0;startArrow=ERoneToMany;startFill=0;" parent="WIyWlLk6GJQsqaUBKTNV-1" edge="1">
          <mxGeometry relative="1" as="geometry" />
        </mxCell>
        <mxCell id="dfx5ZRGHvSyv2vt1D5LN-249" style="edgeStyle=orthogonalEdgeStyle;rounded=0;orthogonalLoop=1;jettySize=auto;html=1;entryX=1;entryY=0.5;entryDx=0;entryDy=0;endArrow=none;endFill=0;startArrow=ERone;startFill=0;" parent="WIyWlLk6GJQsqaUBKTNV-1" edge="1">
          <mxGeometry relative="1" as="geometry" />
        </mxCell>
        <mxCell id="dfx5ZRGHvSyv2vt1D5LN-263" value="&lt;h1 style=&quot;font-size: 29px;&quot;&gt;Нотация Чена&lt;/h1&gt;" style="text;html=1;strokeColor=none;fillColor=none;spacing=5;spacingTop=-20;whiteSpace=wrap;overflow=hidden;rounded=0;fontFamily=EB Garamond;fontSource=https%3A%2F%2Ffonts.googleapis.com%2Fcss%3Ffamily%3DEB%2BGaramond;fontSize=29;align=center;fontStyle=0" parent="WIyWlLk6GJQsqaUBKTNV-1" vertex="1">
          <mxGeometry x="188" y="81" width="450" height="50" as="geometry" />
        </mxCell>
        <mxCell id="dfx5ZRGHvSyv2vt1D5LN-264" value="&lt;h1 style=&quot;font-size: 29px;&quot;&gt;Martin Notation&lt;/h1&gt;" style="text;html=1;strokeColor=none;fillColor=none;spacing=5;spacingTop=-20;whiteSpace=wrap;overflow=hidden;rounded=0;fontFamily=EB Garamond;fontSource=https%3A%2F%2Ffonts.googleapis.com%2Fcss%3Ffamily%3DEB%2BGaramond;fontSize=29;align=center;fontStyle=0" parent="WIyWlLk6GJQsqaUBKTNV-1" vertex="1">
          <mxGeometry x="1016" y="81" width="450" height="50" as="geometry" />
        </mxCell>
        <mxCell id="dfx5ZRGHvSyv2vt1D5LN-265" value="track_to_playlist" style="shape=table;startSize=30;container=1;collapsible=0;childLayout=tableLayout;fixedRows=1;rowLines=0;fontStyle=1;strokeColor=default;fontSize=15;fontFamily=EB Garamond;fontSource=https%3A%2F%2Ffonts.googleapis.com%2Fcss%3Ffamily%3DEB%2BGaramond;" parent="WIyWlLk6GJQsqaUBKTNV-1" vertex="1">
          <mxGeometry x="998" y="904" width="220" height="90" as="geometry" />
        </mxCell>
        <mxCell id="dfx5ZRGHvSyv2vt1D5LN-266" value="" style="shape=tableRow;horizontal=0;startSize=0;swimlaneHead=0;swimlaneBody=0;top=0;left=0;bottom=0;right=0;collapsible=0;dropTarget=0;fillColor=none;points=[[0,0.5],[1,0.5]];portConstraint=eastwest;strokeColor=inherit;fontSize=16;" parent="dfx5ZRGHvSyv2vt1D5LN-265" vertex="1">
          <mxGeometry y="30" width="220" height="30" as="geometry" />
        </mxCell>
        <mxCell id="dfx5ZRGHvSyv2vt1D5LN-267" value="FK1" style="shape=partialRectangle;html=1;whiteSpace=wrap;connectable=0;fillColor=none;top=0;left=0;bottom=0;right=0;overflow=hidden;pointerEvents=1;strokeColor=inherit;fontSize=15;fontFamily=EB Garamond;fontSource=https%3A%2F%2Ffonts.googleapis.com%2Fcss%3Ffamily%3DEB%2BGaramond;" parent="dfx5ZRGHvSyv2vt1D5LN-266" vertex="1">
          <mxGeometry width="49" height="30" as="geometry">
            <mxRectangle width="49" height="30" as="alternateBounds" />
          </mxGeometry>
        </mxCell>
        <mxCell id="dfx5ZRGHvSyv2vt1D5LN-268" value="track_id" style="shape=partialRectangle;html=1;whiteSpace=wrap;connectable=0;fillColor=none;top=0;left=0;bottom=0;right=0;align=left;spacingLeft=6;overflow=hidden;strokeColor=inherit;fontSize=15;fontFamily=EB Garamond;fontSource=https%3A%2F%2Ffonts.googleapis.com%2Fcss%3Ffamily%3DEB%2BGaramond;" parent="dfx5ZRGHvSyv2vt1D5LN-266" vertex="1">
          <mxGeometry x="49" width="171" height="30" as="geometry">
            <mxRectangle width="171" height="30" as="alternateBounds" />
          </mxGeometry>
        </mxCell>
        <mxCell id="dfx5ZRGHvSyv2vt1D5LN-269" value="" style="shape=tableRow;horizontal=0;startSize=0;swimlaneHead=0;swimlaneBody=0;top=0;left=0;bottom=0;right=0;collapsible=0;dropTarget=0;fillColor=none;points=[[0,0.5],[1,0.5]];portConstraint=eastwest;strokeColor=inherit;fontSize=16;" parent="dfx5ZRGHvSyv2vt1D5LN-265" vertex="1">
          <mxGeometry y="60" width="220" height="30" as="geometry" />
        </mxCell>
        <mxCell id="dfx5ZRGHvSyv2vt1D5LN-270" value="FK2" style="shape=partialRectangle;html=1;whiteSpace=wrap;connectable=0;fillColor=none;top=0;left=0;bottom=0;right=0;overflow=hidden;strokeColor=inherit;fontSize=15;fontFamily=EB Garamond;fontSource=https%3A%2F%2Ffonts.googleapis.com%2Fcss%3Ffamily%3DEB%2BGaramond;" parent="dfx5ZRGHvSyv2vt1D5LN-269" vertex="1">
          <mxGeometry width="49" height="30" as="geometry">
            <mxRectangle width="49" height="30" as="alternateBounds" />
          </mxGeometry>
        </mxCell>
        <mxCell id="dfx5ZRGHvSyv2vt1D5LN-271" value="playlist_id" style="shape=partialRectangle;html=1;whiteSpace=wrap;connectable=0;fillColor=none;top=0;left=0;bottom=0;right=0;align=left;spacingLeft=6;overflow=hidden;strokeColor=inherit;fontSize=15;fontFamily=EB Garamond;fontSource=https%3A%2F%2Ffonts.googleapis.com%2Fcss%3Ffamily%3DEB%2BGaramond;" parent="dfx5ZRGHvSyv2vt1D5LN-269" vertex="1">
          <mxGeometry x="49" width="171" height="30" as="geometry">
            <mxRectangle width="171" height="30" as="alternateBounds" />
          </mxGeometry>
        </mxCell>
        <mxCell id="dfx5ZRGHvSyv2vt1D5LN-281" style="edgeStyle=orthogonalEdgeStyle;rounded=0;orthogonalLoop=1;jettySize=auto;html=1;exitX=1;exitY=0.5;exitDx=0;exitDy=0;entryX=0;entryY=0.5;entryDx=0;entryDy=0;startArrow=ERoneToMany;startFill=0;endArrow=ERmandOne;endFill=0;" parent="WIyWlLk6GJQsqaUBKTNV-1" source="dfx5ZRGHvSyv2vt1D5LN-266" target="dfx5ZRGHvSyv2vt1D5LN-135" edge="1">
          <mxGeometry relative="1" as="geometry">
            <Array as="points">
              <mxPoint x="1248" y="949" />
              <mxPoint x="1248" y="885" />
              <mxPoint x="1108" y="885" />
              <mxPoint x="1108" y="716" />
            </Array>
          </mxGeometry>
        </mxCell>
        <mxCell id="dfx5ZRGHvSyv2vt1D5LN-289" style="edgeStyle=orthogonalEdgeStyle;rounded=0;orthogonalLoop=1;jettySize=auto;html=1;exitX=1;exitY=0.5;exitDx=0;exitDy=0;entryX=1;entryY=0.5;entryDx=0;entryDy=0;startArrow=ERmandOne;startFill=0;endArrow=ERmandOne;endFill=0;" parent="WIyWlLk6GJQsqaUBKTNV-1" source="dfx5ZRGHvSyv2vt1D5LN-135" target="dfx5ZRGHvSyv2vt1D5LN-157" edge="1">
          <mxGeometry relative="1" as="geometry">
            <Array as="points">
              <mxPoint x="1380" y="716" />
              <mxPoint x="1380" y="275" />
            </Array>
            <mxPoint x="1352" y="600" as="targetPoint" />
          </mxGeometry>
        </mxCell>
        <mxCell id="dfx5ZRGHvSyv2vt1D5LN-291" value="track_to_album" style="shape=table;startSize=30;container=1;collapsible=0;childLayout=tableLayout;fixedRows=1;rowLines=0;fontStyle=1;strokeColor=default;fontSize=15;fontFamily=EB Garamond;fontSource=https%3A%2F%2Ffonts.googleapis.com%2Fcss%3Ffamily%3DEB%2BGaramond;" parent="WIyWlLk6GJQsqaUBKTNV-1" vertex="1">
          <mxGeometry x="1398" y="697" width="220" height="90" as="geometry" />
        </mxCell>
        <mxCell id="dfx5ZRGHvSyv2vt1D5LN-292" value="" style="shape=tableRow;horizontal=0;startSize=0;swimlaneHead=0;swimlaneBody=0;top=0;left=0;bottom=0;right=0;collapsible=0;dropTarget=0;fillColor=none;points=[[0,0.5],[1,0.5]];portConstraint=eastwest;strokeColor=inherit;fontSize=16;" parent="dfx5ZRGHvSyv2vt1D5LN-291" vertex="1">
          <mxGeometry y="30" width="220" height="30" as="geometry" />
        </mxCell>
        <mxCell id="dfx5ZRGHvSyv2vt1D5LN-293" value="FK1" style="shape=partialRectangle;html=1;whiteSpace=wrap;connectable=0;fillColor=none;top=0;left=0;bottom=0;right=0;overflow=hidden;pointerEvents=1;strokeColor=inherit;fontSize=15;fontFamily=EB Garamond;fontSource=https%3A%2F%2Ffonts.googleapis.com%2Fcss%3Ffamily%3DEB%2BGaramond;" parent="dfx5ZRGHvSyv2vt1D5LN-292" vertex="1">
          <mxGeometry width="49" height="30" as="geometry">
            <mxRectangle width="49" height="30" as="alternateBounds" />
          </mxGeometry>
        </mxCell>
        <mxCell id="dfx5ZRGHvSyv2vt1D5LN-294" value="&lt;span style=&quot;border-color: var(--border-color); font-size: 15px; text-align: center;&quot;&gt;track_id&lt;/span&gt;" style="shape=partialRectangle;html=1;whiteSpace=wrap;connectable=0;fillColor=none;top=0;left=0;bottom=0;right=0;align=left;spacingLeft=6;overflow=hidden;strokeColor=inherit;fontSize=15;fontFamily=EB Garamond;fontSource=https%3A%2F%2Ffonts.googleapis.com%2Fcss%3Ffamily%3DEB%2BGaramond;" parent="dfx5ZRGHvSyv2vt1D5LN-292" vertex="1">
          <mxGeometry x="49" width="171" height="30" as="geometry">
            <mxRectangle width="171" height="30" as="alternateBounds" />
          </mxGeometry>
        </mxCell>
        <mxCell id="dfx5ZRGHvSyv2vt1D5LN-295" value="" style="shape=tableRow;horizontal=0;startSize=0;swimlaneHead=0;swimlaneBody=0;top=0;left=0;bottom=0;right=0;collapsible=0;dropTarget=0;fillColor=none;points=[[0,0.5],[1,0.5]];portConstraint=eastwest;strokeColor=inherit;fontSize=16;" parent="dfx5ZRGHvSyv2vt1D5LN-291" vertex="1">
          <mxGeometry y="60" width="220" height="30" as="geometry" />
        </mxCell>
        <mxCell id="dfx5ZRGHvSyv2vt1D5LN-296" value="FK2" style="shape=partialRectangle;html=1;whiteSpace=wrap;connectable=0;fillColor=none;top=0;left=0;bottom=0;right=0;overflow=hidden;strokeColor=inherit;fontSize=15;fontFamily=EB Garamond;fontSource=https%3A%2F%2Ffonts.googleapis.com%2Fcss%3Ffamily%3DEB%2BGaramond;" parent="dfx5ZRGHvSyv2vt1D5LN-295" vertex="1">
          <mxGeometry width="49" height="30" as="geometry">
            <mxRectangle width="49" height="30" as="alternateBounds" />
          </mxGeometry>
        </mxCell>
        <mxCell id="dfx5ZRGHvSyv2vt1D5LN-297" value="track_album_id" style="shape=partialRectangle;html=1;whiteSpace=wrap;connectable=0;fillColor=none;top=0;left=0;bottom=0;right=0;align=left;spacingLeft=6;overflow=hidden;strokeColor=inherit;fontSize=15;fontFamily=EB Garamond;fontSource=https%3A%2F%2Ffonts.googleapis.com%2Fcss%3Ffamily%3DEB%2BGaramond;" parent="dfx5ZRGHvSyv2vt1D5LN-295" vertex="1">
          <mxGeometry x="49" width="171" height="30" as="geometry">
            <mxRectangle width="171" height="30" as="alternateBounds" />
          </mxGeometry>
        </mxCell>
        <mxCell id="dfx5ZRGHvSyv2vt1D5LN-298" style="edgeStyle=orthogonalEdgeStyle;rounded=0;orthogonalLoop=1;jettySize=auto;html=1;exitX=1;exitY=0.5;exitDx=0;exitDy=0;entryX=0;entryY=0.5;entryDx=0;entryDy=0;endArrow=ERmandOne;endFill=0;" parent="WIyWlLk6GJQsqaUBKTNV-1" source="dfx5ZRGHvSyv2vt1D5LN-135" target="dfx5ZRGHvSyv2vt1D5LN-292" edge="1">
          <mxGeometry relative="1" as="geometry">
            <Array as="points">
              <mxPoint x="1380" y="716" />
              <mxPoint x="1380" y="742" />
            </Array>
          </mxGeometry>
        </mxCell>
        <mxCell id="dfx5ZRGHvSyv2vt1D5LN-299" style="edgeStyle=orthogonalEdgeStyle;rounded=0;orthogonalLoop=1;jettySize=auto;html=1;exitX=1;exitY=0.5;exitDx=0;exitDy=0;entryX=1;entryY=0.5;entryDx=0;entryDy=0;endArrow=ERmandOne;endFill=0;startArrow=ERoneToMany;startFill=0;" parent="WIyWlLk6GJQsqaUBKTNV-1" source="dfx5ZRGHvSyv2vt1D5LN-295" target="dfx5ZRGHvSyv2vt1D5LN-174" edge="1">
          <mxGeometry relative="1" as="geometry" />
        </mxCell>
        <mxCell id="d_IvAm214ZQegVvniSVo-43" value="tempo" style="ellipse;whiteSpace=wrap;html=1;rounded=0;fontFamily=EB Garamond;fontSource=https%3A%2F%2Ffonts.googleapis.com%2Fcss%3Ffamily%3DEB%2BGaramond;fontSize=15;" parent="WIyWlLk6GJQsqaUBKTNV-1" vertex="1">
          <mxGeometry x="120" y="709" width="130" height="70" as="geometry" />
        </mxCell>
        <mxCell id="d_IvAm214ZQegVvniSVo-44" value="" style="rounded=0;orthogonalLoop=1;jettySize=auto;html=1;fontFamily=EB Garamond;fontSource=https%3A%2F%2Ffonts.googleapis.com%2Fcss%3Ffamily%3DEB%2BGaramond;endArrow=none;endFill=0;fontStyle=0;entryX=0.5;entryY=1;entryDx=0;entryDy=0;exitX=0.25;exitY=0;exitDx=0;exitDy=0;" parent="WIyWlLk6GJQsqaUBKTNV-1" source="d_IvAm214ZQegVvniSVo-48" target="d_IvAm214ZQegVvniSVo-43" edge="1">
          <mxGeometry relative="1" as="geometry">
            <mxPoint x="241.20235848259404" y="849.8746350915328" as="sourcePoint" />
            <mxPoint x="426" y="711" as="targetPoint" />
          </mxGeometry>
        </mxCell>
        <mxCell id="d_IvAm214ZQegVvniSVo-46" value="speechiness" style="ellipse;whiteSpace=wrap;html=1;rounded=0;fontFamily=EB Garamond;fontSource=https%3A%2F%2Ffonts.googleapis.com%2Fcss%3Ffamily%3DEB%2BGaramond;fontSize=15;" parent="WIyWlLk6GJQsqaUBKTNV-1" vertex="1">
          <mxGeometry x="140" y="1060" width="130" height="70" as="geometry" />
        </mxCell>
        <mxCell id="d_IvAm214ZQegVvniSVo-47" value="" style="rounded=0;orthogonalLoop=1;jettySize=auto;html=1;fontFamily=EB Garamond;fontSource=https%3A%2F%2Ffonts.googleapis.com%2Fcss%3Ffamily%3DEB%2BGaramond;endArrow=none;endFill=0;fontStyle=0;entryX=0.25;entryY=1;entryDx=0;entryDy=0;exitX=0.5;exitY=0;exitDx=0;exitDy=0;" parent="WIyWlLk6GJQsqaUBKTNV-1" source="d_IvAm214ZQegVvniSVo-46" target="d_IvAm214ZQegVvniSVo-48" edge="1">
          <mxGeometry relative="1" as="geometry">
            <mxPoint x="489" y="774" as="sourcePoint" />
            <mxPoint x="267" y="917.0000000000002" as="targetPoint" />
          </mxGeometry>
        </mxCell>
        <mxCell id="d_IvAm214ZQegVvniSVo-48" value="track_characteristics" style="shape=ext;double=1;whiteSpace=wrap;html=1;fontFamily=EB Garamond;fontSource=https%3A%2F%2Ffonts.googleapis.com%2Fcss%3Ffamily%3DEB%2BGaramond;fontSize=14;" parent="WIyWlLk6GJQsqaUBKTNV-1" vertex="1">
          <mxGeometry x="207" y="852" width="120" height="60" as="geometry" />
        </mxCell>
        <mxCell id="d_IvAm214ZQegVvniSVo-50" value="&lt;font style=&quot;font-size: 15px;&quot; data-font-src=&quot;https://fonts.googleapis.com/css?family=EB+Garamond&quot; face=&quot;EB Garamond&quot;&gt;albums&lt;/font&gt;" style="rounded=0;whiteSpace=wrap;html=1;" parent="WIyWlLk6GJQsqaUBKTNV-1" vertex="1">
          <mxGeometry x="700" y="552" width="120" height="60" as="geometry" />
        </mxCell>
        <mxCell id="d_IvAm214ZQegVvniSVo-52" value="" style="endArrow=none;dashed=1;html=1;rounded=0;entryX=0.631;entryY=0.714;entryDx=0;entryDy=0;entryPerimeter=0;" parent="WIyWlLk6GJQsqaUBKTNV-1" edge="1">
          <mxGeometry width="50" height="50" relative="1" as="geometry">
            <mxPoint x="321" y="750" as="sourcePoint" />
            <mxPoint x="366" y="749.98" as="targetPoint" />
          </mxGeometry>
        </mxCell>
      </root>
    </mxGraphModel>
  </diagram>
</mxfile>
